<?xml version="1.0" encoding="UTF-8" standalone="no"?>
<svg
   width="16"
   height="16"
   fill="currentColor"
   class="bi bi-cake2-fill"
   viewBox="0 0 16 16"
   version="1.1"
   id="svg2"
   sodipodi:docname="cake2-fill.svg"
   inkscape:version="1.4 (e7c3feb1, 2024-10-09)"
   xmlns:inkscape="http://www.inkscape.org/namespaces/inkscape"
   xmlns:sodipodi="http://sodipodi.sourceforge.net/DTD/sodipodi-0.dtd"
   xmlns="http://www.w3.org/2000/svg"
   xmlns:svg="http://www.w3.org/2000/svg">
  <defs
     id="defs2" />
  <sodipodi:namedview
     id="namedview2"
     pagecolor="#ffffff"
     bordercolor="#000000"
     borderopacity="0.25"
     inkscape:showpageshadow="2"
     inkscape:pageopacity="0.0"
     inkscape:pagecheckerboard="0"
     inkscape:deskcolor="#d1d1d1"
     inkscape:zoom="63.0625"
     inkscape:cx="7.9920714"
     inkscape:cy="8"
     inkscape:window-width="1200"
     inkscape:window-height="1186"
     inkscape:window-x="0"
     inkscape:window-y="25"
     inkscape:window-maximized="0"
     inkscape:current-layer="svg2" />
  <path
     d="m2.899.804.595-.792.598.79A.747.747 0 0 1 4 1.806v4.886q-.532-.09-1-.201V1.813a.747.747 0 0 1-.1-1.01ZM13 1.806v4.685a15 15 0 0 1-1 .201v-4.88a.747.747 0 0 1-.1-1.007l.595-.792.598.79A.746.746 0 0 1 13 1.806m-3 0a.746.746 0 0 0 .092-1.004l-.598-.79-.595.792A.747.747 0 0 0 9 1.813v5.17q.512-.02 1-.055zm-3 0v5.176q-.512-.018-1-.054V1.813a.747.747 0 0 1-.1-1.01l.595-.79.598.789A.747.747 0 0 1 7 1.806"
     id="path1" />
  <path
     d="M4.5 6.988V4.226a23 23 0 0 1 1-.114V7.16c0 .131.101.24.232.25l.231.017q.498.037 1.02.055l.258.01a.25.25 0 0 0 .26-.25V4.003a29 29 0 0 1 1 0V7.24a.25.25 0 0 0 .258.25l.259-.009q.52-.018 1.019-.055l.231-.017a.25.25 0 0 0 .232-.25V4.112q.518.047 1 .114v2.762a.25.25 0 0 0 .292.246l.291-.049q.547-.091 1.033-.208l.192-.046a.25.25 0 0 0 .192-.243V4.621c.672.184 1.251.409 1.677.678.415.261.823.655.823 1.2V13.5c0 .546-.408.94-.823 1.201-.44.278-1.043.51-1.745.696-1.41.376-3.33.603-5.432.603s-4.022-.227-5.432-.603c-.702-.187-1.305-.418-1.745-.696C.408 14.44 0 14.046 0 13.5v-7c0-.546.408-.94.823-1.201.426-.269 1.005-.494 1.677-.678v2.067c0 .116.08.216.192.243l.192.046q.486.116 1.033.208l.292.05a.25.25 0 0 0 .291-.247M1 8.82v1.659a1.935 1.935 0 0 0 2.298.43.935.935 0 0 1 1.08.175l.348.349a2 2 0 0 0 2.615.185l.059-.044a1 1 0 0 1 1.2 0l.06.044a2 2 0 0 0 2.613-.185l.348-.348a.94.94 0 0 1 1.082-.175c.781.39 1.718.208 2.297-.426V8.833l-.68.907a.94.94 0 0 1-1.17.276 1.94 1.94 0 0 0-2.236.363l-.348.348a1 1 0 0 1-1.307.092l-.06-.044a2 2 0 0 0-2.399 0l-.06.044a1 1 0 0 1-1.306-.092l-.35-.35a1.935 1.935 0 0 0-2.233-.362.935.935 0 0 1-1.168-.277z"
     id="path2" />
  <path
     style="fill:#ffcc00;stroke-width:0.0106386"
     d="M 7.3974232,15.983127 C 5.6671768,15.948404 4.0411974,15.756592 2.7670961,15.436902 1.1591158,15.033437 0.27005195,14.495914 0.05276943,13.795837 L 0.01585728,13.676908 V 9.9900892 6.3032706 L 0.06063139,6.1764123 C 0.20526324,5.7666276 0.54559475,5.4375904 1.1337958,5.1388623 1.4672337,4.9695202 1.9396354,4.7877218 2.3331809,4.6772928 c 0.067753,-0.019011 0.1324461,-0.038119 0.1437637,-0.042463 0.016739,-0.00642 0.020578,0.1907366 0.020578,1.0570257 0,1.1651322 -0.00417,1.1121335 0.094011,1.1947476 0.035217,0.029634 0.1087927,0.054621 0.2832015,0.096179 C 3.396625,7.1071382 4.2141687,7.2555372 4.2941199,7.240426 4.3776809,7.224632 4.4475399,7.171844 4.480257,7.0997711 4.509532,7.0352811 4.510715,6.9789947 4.51105,5.6345599 L 4.5113974,4.2364148 4.555005,4.22759 C 4.598361,4.21882 5.1832572,4.150136 5.387284,4.129862 l 0.1068084,-0.010614 0.00419,1.5705356 c 0.00415,1.5553387 0.00451,1.5709686 0.036731,1.6153015 0.068574,0.094343 0.136757,0.1111526 0.5621095,0.13858 0.6952355,0.04483 1.1831924,0.061304 1.2418994,0.041929 0.062104,-0.020496 0.1285895,-0.085297 0.1525328,-0.1486683 0.01152,-0.030491 0.016866,-0.5645198 0.016866,-1.6848365 V 4.011893 H 8 8.4915758 v 1.6378689 1.6378689 l 0.035679,0.070754 c 0.026628,0.052805 0.054312,0.080003 0.1091306,0.1072133 l 0.073452,0.03646 0.394338,-0.016746 c 0.216886,-0.00921 0.5727326,-0.027972 0.7907703,-0.041693 0.4341383,-0.027319 0.5010143,-0.043572 0.5700383,-0.1385333 0.03222,-0.044333 0.03258,-0.059963 0.03673,-1.6153015 l 0.0042,-1.5705356 0.106808,0.010614 c 0.204027,0.020274 0.788923,0.088954 0.832279,0.097728 l 0.04361,0.00882 3.48e-4,1.3981455 c 3.35e-4,1.3444348 0.0015,1.4007217 0.03079,1.4652112 0.03258,0.071774 0.102534,0.1248525 0.185116,0.1404632 0.08204,0.015509 0.89617,-0.1319585 1.421511,-0.2574862 0.173259,-0.041399 0.246823,-0.066464 0.282036,-0.096094 0.09825,-0.082673 0.09407,-0.029586 0.09407,-1.1947988 0,-0.8662891 0.0038,-1.0634492 0.02058,-1.0570257 0.01132,0.00434 0.07601,0.023451 0.143764,0.042463 0.39252,0.1101414 0.864798,0.2917897 1.199385,0.46131 0.589506,0.2986759 0.927734,0.6257613 1.073164,1.0378095 l 0.04477,0.1268583 0.0042,3.6432662 c 0.0045,3.9206761 0.0082,3.7270941 -0.07493,3.9477311 -0.168626,0.447802 -0.746902,0.887808 -1.586322,1.207022 -1.321591,0.502572 -3.447782,0.83741 -5.5579775,0.875284 -0.2442022,0.0044 -0.5296333,0.01012 -0.6342914,0.01275 -0.1046581,0.0026 -0.4364717,-1.6e-4 -0.7373637,-0.0062 z M 6.4836922,11.99593 c 0.3069633,-0.05353 0.5916424,-0.175613 0.8642617,-0.370633 0.1886663,-0.134964 0.2573255,-0.169962 0.4100781,-0.209029 0.2148996,-0.05496 0.4883716,-0.02824 0.6727958,0.06573 0.037772,0.01925 0.1451048,0.08782 0.2385171,0.152379 0.393608,0.27204 0.744603,0.385228 1.195056,0.385378 0.3276711,1.09e-4 0.5883331,-0.06026 0.8878911,-0.205624 0.223921,-0.108663 0.383606,-0.233128 0.713935,-0.55647 0.323587,-0.316743 0.406901,-0.370192 0.654641,-0.419976 0.204151,-0.04102 0.351208,-0.01877 0.59408,0.08992 0.305954,0.136915 0.538319,0.188218 0.852846,0.188298 0.230772,5.8e-5 0.423561,-0.02959 0.619695,-0.0953 0.267755,-0.08971 0.538748,-0.253268 0.730251,-0.440752 l 0.09118,-0.08927 V 9.6615469 c 0,-0.4559716 -0.0054,-0.8287525 -0.01189,-0.8284017 -0.0065,3.508e-4 -0.16888,0.2114369 -0.360753,0.4690802 -0.191874,0.2576433 -0.390571,0.507361 -0.44155,0.5549282 -0.166635,0.1554834 -0.392835,0.2439364 -0.62381,0.2439364 -0.153805,0 -0.260492,-0.02685 -0.471188,-0.118596 -0.649959,-0.2830117 -1.334951,-0.2248228 -1.91905,0.16302 -0.06204,0.04119 -0.250477,0.209368 -0.421466,0.376143 -0.267309,0.26072 -0.326713,0.310688 -0.437926,0.368363 C 10.1631,10.972053 10.03145,11.004415 9.8546696,11.004721 9.6210334,11.005125 9.4407342,10.939662 9.2076989,10.769818 8.9722838,10.59824 8.6867771,10.469136 8.4097146,10.408977 8.2511689,10.374552 7.9129286,10.3623 7.7438067,10.384857 7.3858458,10.432599 7.0705311,10.562724 6.7631318,10.789566 6.5600563,10.939423 6.3713345,11.005114 6.1450165,11.004721 5.9686414,11.004415 5.8369047,10.972035 5.6787162,10.890108 5.5676672,10.832595 5.508796,10.783187 5.2487611,10.529266 4.8797051,10.168886 4.7426174,10.067224 4.4769936,9.9569359 3.9929516,9.7559599 3.4500397,9.7540229 2.9757193,9.9515798 2.6782746,10.075467 2.635049,10.088524 2.4940954,10.097059 2.3153207,10.107884 2.1894823,10.082932 2.0251217,10.004067 1.8399583,9.9152212 1.7551493,9.8236394 1.3557978,9.2812924 1.1682854,9.0266374 1.0095144,8.8179159 1.0029732,8.8174668 0.99643211,8.8170176 0.99108028,9.1938112 0.99108028,9.654786 v 0.838136 l 0.0832507,0.07872 c 0.1361311,0.128727 0.3405149,0.271927 0.4941821,0.346243 0.3137968,0.151759 0.5822992,0.206942 0.9429309,0.193794 0.2642693,-0.0096 0.4461765,-0.04914 0.6793704,-0.14756 0.297386,-0.125506 0.3489948,-0.139372 0.5197902,-0.139649 0.1069087,-1.74e-4 0.1895713,0.009 0.2537165,0.02809 0.1915432,0.05707 0.2699275,0.113003 0.5708622,0.407361 0.1569872,0.153555 0.3431268,0.3218 0.4136435,0.373876 0.2373426,0.175275 0.5099831,0.295061 0.8073675,0.354718 0.1833752,0.03679 0.5383132,0.0404 0.7274979,0.0074 z"
     id="path3" />
  <path
     style="fill:#ffcc00;stroke-width:0.0106386"
     d="M 9.0148662,4.3982839 V 1.8205257 L 8.9492384,1.7467346 C 8.9131431,1.7061495 8.8578408,1.6194252 8.8263445,1.5540139 8.7707753,1.4386087 8.7690783,1.4296801 8.7690783,1.2527255 c 0,-0.1708403 0.00309,-0.1888693 0.048879,-0.28543115 0.04364,-0.0920259 0.6667761,-0.94674909 0.6803166,-0.93315501 0.05643,0.05665353 0.6387481,0.85338518 0.6667001,0.91218437 0.05503,0.11575259 0.07635,0.23175179 0.06641,0.36129829 -0.01132,0.1475733 -0.06066,0.2736356 -0.155564,0.3974507 L 9.998114,1.806455 9.9941016,4.3640799 9.9900892,6.9217047 9.6888008,6.939347 C 9.5230922,6.949047 9.303667,6.961276 9.2011893,6.966516 l -0.1863231,0.00953 z"
     id="path4" />
  <path
     style="fill:#ffcc00;stroke-width:0.0106386"
     d="M 12.011893,4.2513288 V 1.8231396 l -0.07134,-0.087583 C 11.853258,1.628379 11.81286,1.5511523 11.781887,1.4322363 c -0.04275,-0.1641378 -0.02382,-0.3407374 0.05367,-0.50052682 0.02601,-0.0536381 0.600218,-0.83864124 0.649468,-0.88789105 0.01201,-0.01200717 0.526258,0.65287501 0.633449,0.81899567 0.112004,0.1735782 0.143716,0.4027634 0.08295,0.5994938 -0.03113,0.1007865 -0.128518,0.2695573 -0.179857,0.3116852 -0.02457,0.020164 -0.02652,0.1939687 -0.02652,2.3652792 v 2.3435159 l -0.140889,0.032439 c -0.175187,0.040336 -0.665672,0.1383215 -0.766941,0.153214 l -0.07532,0.011077 z"
     id="path5" />
  <path
     style="fill:#ffcc00;stroke-width:0.0106386"
     d="M 6.6283449,6.9592796 C 6.4888008,6.9520081 6.2925669,6.9405789 6.1922696,6.9338816 L 6.0099108,6.9217047 6.0058983,4.3626218 6.0018858,1.803539 5.9482599,1.7441816 C 5.736023,1.5092606 5.7013601,1.1348505 5.8674848,0.87169191 5.8888,0.83792649 6.0388991,0.63493 6.2010384,0.42058861 L 6.4958371,0.03087697 6.6321284,0.20969023 C 7.1572399,0.89863291 7.1947008,0.95799887 7.2268856,1.1522279 7.2587668,1.3446247 7.1851006,1.58641 7.0499184,1.7330655 l -0.064785,0.070283 v 2.5869284 2.5869284 l -0.051536,-0.00235 c -0.028345,-0.00129 -0.1657086,-0.0083 -0.3052527,-0.015573 z"
     id="path6" />
  <path
     style="fill:#784421;stroke-width:0.0106386"
     d="M 3.6075322,6.6115035 C 3.4374628,6.577587 3.2323092,6.5348045 3.1516353,6.5164315 L 3.0049554,6.4830259 V 4.1431872 1.8033484 L 2.9404875,1.7334091 C 2.803353,1.5846357 2.7322492,1.3442308 2.766491,1.1451197 2.7765613,1.0865625 2.8013141,1.0023154 2.8214972,0.9579039 2.8416804,0.91349238 3.0011733,0.68664021 3.175926,0.45378797 L 3.4936581,0.03042026 3.6907083,0.28874829 C 4.1740572,0.92240722 4.1955197,0.95680056 4.2254638,1.1456888 4.2577861,1.3495783 4.1882658,1.5862019 4.0528916,1.7330655 l -0.064785,0.070283 v 2.4362842 2.4362841 l -0.035679,-0.00137 C 3.9328048,6.6737881 3.7776016,6.6454202 3.6075322,6.6115035 Z"
     id="path7" />
  <path
     style="fill:#ffcc00;stroke-width:0.0106386"
     d="M 7.2864222,15.973423 C 4.722491,15.911343 2.4171985,15.493949 1.1623056,14.864597 0.55424135,14.559641 0.208978,14.223769 0.06331315,13.795496 L 0.02378593,13.679282 V 9.987023 6.2947646 L 0.07687209,6.1610563 C 0.14456997,5.9905454 0.21323149,5.8768136 0.33496,5.7335562 0.61645967,5.4022707 1.1561395,5.0904443 1.9108028,4.8230362 2.107154,4.7534609 2.4676849,4.6426079 2.4743933,4.6497482 c 0.00226,0.0024 0.010166,0.4863579 0.017579,1.0754608 0.015058,1.1966186 0.00727,1.1247724 0.1286755,1.1866177 0.1443698,0.073542 1.4264333,0.3349523 1.6427409,0.3349523 0.076661,0 0.15232,-0.042461 0.2069071,-0.1161202 0.032935,-0.044442 0.03323,-0.054936 0.041101,-1.4666529 l 0.00793,-1.4218905 0.079286,-0.012359 c 0.1580966,-0.024643 0.872353,-0.1019486 0.8800793,-0.095252 0.00436,0.00378 0.011496,0.7112595 0.015857,1.572178 0.00751,1.4818748 0.00947,1.5676637 0.036912,1.6095267 0.034307,0.052343 0.09531,0.080295 0.224847,0.1030288 0.1241059,0.021781 0.7802651,0.062327 1.2251035,0.075703 l 0.3513787,0.010566 0.061553,-0.040733 C 7.5163717,7.3840181 7.5084242,7.5095667 7.5084242,5.6626184 V 4.011893 H 8 8.4915758 v 1.649945 c 0,1.7786816 -0.00403,1.6913863 0.081744,1.7694093 0.084399,0.076769 0.111128,0.080974 0.4256889,0.066958 0.5201102,-0.023174 1.1310373,-0.06186 1.2349083,-0.078198 0.133761,-0.021039 0.199417,-0.050086 0.234622,-0.103799 0.02744,-0.041864 0.02941,-0.1276532 0.03691,-1.6095264 0.0044,-0.860918 0.0115,-1.5683774 0.01586,-1.5721321 0.0079,-0.00678 0.728484,0.071012 0.88008,0.095013 l 0.07929,0.012553 0.0079,1.4218905 c 0.0079,1.4117166 0.0082,1.4222106 0.0411,1.4666529 0.05459,0.073659 0.130246,0.1161202 0.206907,0.1161202 0.218445,0 1.496957,-0.2605339 1.642248,-0.3346556 0.122001,-0.06224 0.114132,0.010204 0.128932,-1.1869195 0.0073,-0.5891 0.0154,-1.0732625 0.01804,-1.0759167 0.01005,-0.010108 0.45506,0.1317994 0.693214,0.2210552 0.842519,0.3157618 1.348823,0.6540956 1.597046,1.0672156 0.02967,0.049384 0.07784,0.1499587 0.107038,0.2234983 l 0.05309,0.1337083 -2.74e-4,3.6038565 c -1.65e-4,2.1627535 -0.0063,3.6609245 -0.01534,3.7465715 -0.03072,0.291128 -0.194213,0.560167 -0.490006,0.806356 C 14.9253,14.9054 14.133492,15.228865 12.887111,15.506942 11.32452,15.855568 9.3187235,16.02263 7.2864222,15.973423 Z M 6.5208611,11.995929 C 6.805271,11.941978 7.0423765,11.837174 7.3740982,11.618787 7.6559703,11.433218 7.7278267,11.409237 8,11.409894 c 0.2731948,6.6e-4 0.3435925,0.02431 0.6337939,0.212887 0.3473908,0.225744 0.5654759,0.320247 0.8612196,0.373191 0.124069,0.02221 0.2112544,0.02617 0.4360753,0.01979 0.3267702,-0.0093 0.4776782,-0.04133 0.7410662,-0.157415 0.274108,-0.120816 0.428144,-0.235153 0.808389,-0.600047 0.233483,-0.224056 0.31034,-0.286955 0.412424,-0.337517 0.166071,-0.08226 0.42555,-0.112375 0.586715,-0.0681 0.04361,0.01198 0.179187,0.06139 0.301288,0.109796 0.298733,0.118436 0.477137,0.153478 0.781385,0.153478 0.138467,0 0.293393,-0.0098 0.372077,-0.02351 0.335564,-0.05852 0.687297,-0.234418 0.963839,-0.482013 l 0.110648,-0.09907 V 9.6719377 c 0,-0.5083473 -0.0058,-0.8394303 -0.01478,-0.8394303 -0.0081,0 -0.145484,0.1730426 -0.30523,0.3845392 -0.403621,0.534377 -0.496248,0.6426167 -0.616918,0.7209048 -0.149893,0.097247 -0.318158,0.1487776 -0.487464,0.1492856 -0.173889,5.22e-4 -0.240361,-0.01493 -0.481564,-0.1119376 C 12.752671,9.8344181 12.51006,9.789417 12.186323,9.8052756 c -0.301164,0.014753 -0.52411,0.073378 -0.792864,0.2084904 -0.212038,0.106598 -0.299571,0.176555 -0.712553,0.569477 -0.246823,0.234834 -0.339059,0.299349 -0.516387,0.36119 -0.107536,0.0375 -0.152315,0.04427 -0.2939921,0.04445 -0.2666511,3.38e-4 -0.3696644,-0.03621 -0.6772708,-0.240265 -0.2919195,-0.193653 -0.60503,-0.32318 -0.8760508,-0.362403 -0.056723,-0.0082 -0.2054798,-0.01507 -0.3305717,-0.01524 -0.4412705,-6.09e-4 -0.7766511,0.107055 -1.1832335,0.379841 -0.2962355,0.198753 -0.4084812,0.238404 -0.673927,0.238067 -0.1431506,-1.82e-4 -0.1860979,-0.0068 -0.299287,-0.04621 C 5.648133,10.879309 5.5737893,10.825338 5.2725471,10.537848 5.1286422,10.400513 4.9562134,10.244194 4.889372,10.190471 4.5063656,9.8826396 3.9273456,9.7390559 3.4084031,9.8232249 3.2313784,9.8519372 3.103697,9.8908413 2.8470849,9.994257 2.6587628,10.070151 2.6388045,10.074811 2.4724172,10.081721 2.2750021,10.089921 2.1808309,10.070366 2.0152736,9.9867928 1.863503,9.9101793 1.7398286,9.7753368 1.3674552,9.2804757 1.1754943,9.0253717 1.0122805,8.8166501 1.0047579,8.8166501 c -0.007523,0 -0.0136776,0.3815533 -0.0136776,0.847896 v 0.8478959 l 0.1228939,0.10503 c 0.2627647,0.224568 0.5212737,0.364293 0.8285431,0.447833 0.1390112,0.03779 0.1763594,0.04101 0.4836472,0.0417 0.3883072,8.62e-4 0.4682934,-0.01445 0.8221923,-0.157413 0.2550176,-0.103017 0.3668437,-0.126705 0.5386629,-0.114107 0.2659858,0.0195 0.3801104,0.08518 0.7307091,0.420514 0.387884,0.370996 0.507786,0.46279 0.7608027,0.58245 0.1471701,0.0696 0.3661332,0.140243 0.5093773,0.164334 0.1398062,0.02351 0.5953331,0.01926 0.7329523,-0.0069 z"
     id="path8" />
  <path
     style="fill:#784421;stroke-width:0.0106386"
     d="M 7.2784936,15.973437 C 4.6989469,15.90725 2.416986,15.493843 1.164842,14.865869 0.5540543,14.559547 0.20921302,14.22446 0.06331315,13.795496 L 0.02378593,13.679282 V 9.987023 6.2947646 L 0.07687209,6.1610563 C 0.14497801,5.9895177 0.21328685,5.876745 0.33791729,5.7300903 0.60438567,5.4165329 1.0805831,5.1329493 1.7830448,4.8694929 2.0124678,4.7834483 2.4651257,4.6398588 2.4747495,4.6500743 c 0.00209,0.00222 0.00994,0.4861507 0.017447,1.0753987 0.015351,1.2055846 0.00673,1.1310512 0.1374857,1.1886565 0.1765301,0.077772 1.2515417,0.2998083 1.5792236,0.3261783 0.108931,0.00877 0.1251719,0.00619 0.1741752,-0.027609 0.029723,-0.020503 0.06897,-0.057419 0.087215,-0.082037 0.032935,-0.04444 0.03323,-0.054932 0.041101,-1.4666543 l 0.00793,-1.4218946 0.079286,-0.012551 c 0.1516116,-0.024001 0.8722006,-0.1017953 0.8800793,-0.095013 0.00436,0.00375 0.011496,0.7112137 0.015857,1.5721332 0.00724,1.4291714 0.010239,1.5688329 0.034491,1.6058333 0.034936,0.0533 0.1099983,0.087486 0.2357166,0.1073532 0.1402017,0.022156 0.7887134,0.062209 1.2145142,0.075011 0.3419344,0.01028 0.352355,0.00967 0.4066843,-0.02391 0.030667,-0.018953 0.068984,-0.053958 0.085149,-0.077789 0.028084,-0.041402 0.029589,-0.117545 0.033841,-1.7123074 l 0.00445,-1.6689792 h 0.4907361 0.4907364 l 0.00432,1.6617549 c 0.00485,1.8658586 -0.00644,1.7032656 0.1242201,1.7897303 l 0.063631,0.042109 0.3277517,-0.010571 c 0.426487,-0.013755 1.0941933,-0.054748 1.2244533,-0.075174 0.125614,-0.019698 0.200746,-0.053876 0.235717,-0.1072287 0.02425,-0.037001 0.02725,-0.1766626 0.03449,-1.6058331 0.0044,-0.8609192 0.0115,-1.568379 0.01586,-1.5721328 0.0079,-0.00678 0.728477,0.071014 0.88008,0.095014 l 0.07929,0.012552 0.0079,1.4218934 c 0.0079,1.4117203 0.0082,1.4222135 0.0411,1.4666539 0.01824,0.024618 0.05749,0.061535 0.08721,0.082038 0.04922,0.033954 0.06498,0.036396 0.176743,0.027395 0.220098,-0.017726 0.945484,-0.1552096 1.359955,-0.2577551 0.188697,-0.046686 0.274681,-0.08472 0.307824,-0.1361599 0.03367,-0.052268 0.03933,-0.1929838 0.04989,-1.2405948 0.0053,-0.5232717 0.01169,-0.9535118 0.01427,-0.9560891 0.01052,-0.010516 0.414619,0.117549 0.667187,0.2114407 1.01171,0.3761009 1.513034,0.7527783 1.730346,1.3001209 l 0.05309,0.1337083 -2.74e-4,3.6038565 c -1.65e-4,2.1627536 -0.0063,3.6609246 -0.01534,3.7465716 -0.04909,0.465172 -0.439528,0.876736 -1.187316,1.251563 -1.031695,0.517136 -3.011217,0.917477 -5.1399868,1.039517 -0.6362421,0.03647 -1.7169188,0.05353 -2.3548067,0.03716 z M 6.5094153,11.997427 C 6.787794,11.947596 7.0279729,11.842574 7.3662061,11.622781 7.6594761,11.432206 7.7278586,11.409237 8,11.409894 c 0.2700854,6.52e-4 0.3431941,0.0245 0.6151309,0.200634 0.3686722,0.238793 0.5874622,0.333654 0.8919311,0.386715 0.1165964,0.02032 0.2118562,0.02434 0.4275267,0.01805 0.3240653,-0.0095 0.4770093,-0.04211 0.7398663,-0.15796 0.263297,-0.116048 0.434325,-0.243458 0.8114,-0.604465 0.228892,-0.219139 0.305427,-0.281564 0.408966,-0.333569 0.16084,-0.08079 0.423426,-0.110777 0.584862,-0.0668 0.04361,0.01188 0.171385,0.05858 0.28395,0.103771 0.33885,0.136049 0.421442,0.151427 0.810202,0.150844 0.310143,-4.64e-4 0.343665,-0.0034 0.488309,-0.04266 0.301654,-0.0819 0.612478,-0.252122 0.847668,-0.464225 l 0.09911,-0.08938 V 9.6716768 c 0,-0.4615432 -0.0054,-0.8391692 -0.01189,-0.8391689 -0.01472,6e-7 -0.03235,0.022218 -0.352418,0.4440035 -0.466775,0.6151239 -0.528966,0.6754458 -0.788647,0.7649536 -0.104922,0.03616 -0.159652,0.04543 -0.270274,0.04577 -0.174846,5.27e-4 -0.241798,-0.01495 -0.485733,-0.112267 -0.347412,-0.1386014 -0.596411,-0.1851078 -0.912657,-0.1704598 -0.278487,0.012899 -0.51882,0.075481 -0.770053,0.2005208 -0.222684,0.11083 -0.341359,0.20289 -0.697721,0.541241 -0.294406,0.279527 -0.369513,0.333688 -0.54971,0.396409 -0.113189,0.0394 -0.156136,0.04603 -0.2992871,0.04621 C 9.6039145,10.989224 9.5009694,10.952712 9.1932561,10.74867 8.7843709,10.477542 8.4469885,10.370664 8,10.370664 c -0.4536373,0 -0.7729602,0.101311 -1.1932561,0.378583 -0.3089869,0.20384 -0.4111167,0.239977 -0.6772708,0.239639 -0.1431506,-1.82e-4 -0.1860979,-0.0068 -0.299287,-0.04621 C 5.6487017,10.879507 5.5744438,10.825621 5.2725471,10.538015 4.9430552,10.224121 4.7654392,10.085098 4.5835322,9.9987135 4.314488,9.8709485 4.0981241,9.8174957 3.7962883,9.8042244 3.4690423,9.789836 3.2804989,9.8262668 2.8939544,9.9785755 2.6544385,10.072951 2.6436605,10.07559 2.4715901,10.081982 2.2734869,10.08934 2.179635,10.069762 2.0152736,9.9867928 1.8639724,9.9104162 1.7406619,9.7760474 1.3670847,9.2804757 1.1747794,9.0253717 1.0115081,8.8166501 1.0042595,8.8166501 c -0.007249,0 -0.0131792,0.3811608 -0.0131792,0.8470239 v 0.847024 l 0.099108,0.08668 c 0.3117728,0.272689 0.6334825,0.432855 0.9966118,0.496173 0.1152298,0.02009 0.2102823,0.02413 0.4186508,0.01777 0.3139882,-0.0096 0.4019719,-0.02872 0.7356209,-0.160078 0.2689467,-0.105882 0.3747527,-0.128317 0.5459479,-0.115765 0.2652269,0.01945 0.3789782,0.08466 0.7270712,0.416809 0.3886245,0.370826 0.5280257,0.476545 0.7848029,0.595176 0.1478972,0.06833 0.361472,0.135126 0.4969437,0.155422 0.1421661,0.0213 0.5829244,0.01793 0.7135778,-0.0055 z"
     id="path9" />
  <path
     style="fill:#784421;stroke-width:0.0106386"
     d="M 6.8344896,15.951161 C 3.8031407,15.820845 1.3638466,15.224761 0.47852909,14.397972 0.2762618,14.209077 0.14791596,14.012077 0.06118192,13.757381 L 0.02378593,13.647567 V 9.9821171 6.3166671 L 0.06493882,6.2148251 C 0.21399761,5.845946 0.41319012,5.6099864 0.78466306,5.3622538 0.96863263,5.2395658 1.3454387,5.051931 1.6412289,4.9357174 1.9186047,4.8267387 2.4461615,4.652967 2.4594112,4.6662167 c 0.00479,0.00479 0.015025,0.4321763 0.022738,0.9497419 0.014236,0.9552013 0.022337,1.1613596 0.048321,1.2297029 0.00862,0.022679 0.042073,0.050325 0.082562,0.068235 0.209834,0.09282 1.3980005,0.3328822 1.6475679,0.3328822 0.066349,0 0.098083,-0.00887 0.1385357,-0.038713 0.1122117,-0.082787 0.102831,0.038619 0.118525,-1.5339804 l 0.014191,-1.4220491 0.034283,-0.0086 c 0.046047,-0.011557 0.8996605,-0.1071976 0.9046011,-0.1013533 0.00214,0.00253 0.010156,0.712084 0.017816,1.5767853 0.013634,1.539219 0.01459,1.5729176 0.045603,1.6071735 0.043493,0.04804 0.095701,0.072603 0.1982535,0.093274 0.1375859,0.027732 0.7291119,0.065288 1.1991896,0.076135 l 0.4301112,0.00993 0.069393,-0.06472 0.069393,-0.06472 0.00934,-1.6780554 C 7.514978,4.7749465 7.5203298,4.0180377 7.5217321,4.0158573 7.5231342,4.0136769 7.7383548,4.011893 8,4.011893 c 0.2616452,0 0.4769981,0.00178 0.4785619,0.00396 0.00156,0.00218 0.00747,0.7460852 0.013132,1.6531219 0.00633,1.0147351 0.016318,1.6673326 0.02596,1.6964026 0.00895,0.026988 0.046463,0.069363 0.087489,0.098832 L 8.676961,7.5158 9.0639513,7.5000909 c 0.5248585,-0.021306 1.1128837,-0.06095 1.2105947,-0.081619 0.09669,-0.020452 0.149027,-0.045743 0.191299,-0.092435 0.03101,-0.034256 0.03197,-0.067954 0.0456,-1.6071735 0.0077,-0.8647013 0.01568,-1.5742546 0.01782,-1.5767853 0.0051,-0.00603 0.859288,0.089981 0.906899,0.1019302 l 0.03658,0.00918 0.0018,0.5731075 c 9.78e-4,0.3152092 0.0063,0.9548717 0.01189,1.4214723 0.01116,0.9359987 0.0044,0.8790882 0.114449,0.960296 0.0409,0.030179 0.07189,0.038676 0.140571,0.038545 0.260761,-4.972e-4 1.456881,-0.2431664 1.64324,-0.3333811 0.03892,-0.018842 0.07862,-0.048933 0.08822,-0.066868 0.02385,-0.044569 0.04365,-0.5661799 0.04468,-1.1773826 4.73e-4,-0.2790882 0.0055,-0.6201403 0.01125,-0.7578936 l 0.01039,-0.2504605 0.04902,0.010629 c 0.10215,0.022146 0.581774,0.1876603 0.810174,0.2795839 0.59787,0.2406228 1.008636,0.4977544 1.251208,0.7832336 0.118871,0.1398974 0.183915,0.246697 0.265508,0.4359527 l 0.0629,0.1459081 -0.0097,3.6408447 c -0.0061,2.3123987 -0.01548,3.6779367 -0.0256,3.7425027 -0.06249,0.398554 -0.404206,0.769098 -1.023257,1.109594 -1.117365,0.614581 -3.375732,1.055948 -5.8491423,1.143136 -0.5177603,0.01825 -1.8029331,0.01776 -2.2358771,-8.49e-4 z M 6.5536913,11.994717 c 0.2609735,-0.0536 0.4661562,-0.14482 0.8162909,-0.362898 C 7.6939864,11.430017 7.7054387,11.426281 8,11.426281 c 0.2972705,0 0.287328,-0.0034 0.6902467,0.239484 0.4588046,0.27663 0.6468038,0.338381 1.0656739,0.350038 0.4491304,0.0125 0.6706654,-0.02929 0.9953184,-0.187735 0.198166,-0.09671 0.369014,-0.223763 0.639613,-0.475636 0.493791,-0.459621 0.577698,-0.506049 0.914534,-0.506049 0.114028,0 0.155866,0.0083 0.288615,0.05734 0.558094,0.206108 0.627964,0.219651 1.07477,0.208325 0.250934,-0.0064 0.302979,-0.01241 0.428355,-0.04976 0.278842,-0.08308 0.581148,-0.251707 0.820614,-0.457736 l 0.09118,-0.07845 V 9.6793032 c 0,-0.4959932 -0.006,-0.8467958 -0.01438,-0.8467958 -0.01834,0 -0.09359,0.091685 -0.318896,0.3885035 -0.435785,0.5741128 -0.559547,0.703402 -0.748717,0.7821531 -0.26506,0.110345 -0.455298,0.103483 -0.805023,-0.02904 -0.339425,-0.1286193 -0.4785,-0.1603466 -0.745292,-0.1700251 -0.374312,-0.013579 -0.636747,0.038071 -0.944104,0.1858085 -0.206452,0.099236 -0.349927,0.2078966 -0.689197,0.5219616 -0.152626,0.141288 -0.318636,0.284582 -0.368911,0.318433 -0.181175,0.121985 -0.371702,0.163703 -0.6401542,0.140165 C 9.5699811,10.956065 9.4692573,10.912635 9.1813677,10.73208 8.7341921,10.451625 8.467777,10.370664 7.9920714,10.370664 c -0.4659971,0 -0.7237581,0.07939 -1.1734391,0.361416 C 6.5307427,10.912635 6.4300189,10.956065 6.2657552,10.970467 5.9974061,10.993995 5.8069602,10.952323 5.625601,10.830391 5.5753262,10.796591 5.4485629,10.688986 5.3439049,10.59127 4.8827703,10.160724 4.7170632,10.037849 4.4638256,9.9386762 4.171919,9.8243592 3.9686736,9.7921527 3.6166795,9.8044362 c -0.2780629,0.0097 -0.3705825,0.030978 -0.7203968,0.1656501 -0.2289774,0.088153 -0.2350179,0.089509 -0.4275361,0.096012 -0.1716077,0.0058 -0.209039,0.0022 -0.3088159,-0.02991 C 1.9227362,9.9599174 1.8219094,9.8601621 1.32123,9.2063989 1.1614514,8.9977676 1.0218038,8.8241303 1.0109019,8.8205384 0.9952087,8.8153684 0.9910803,8.9923784 0.9910803,9.6704211 v 0.8564139 l 0.1070366,0.08902 c 0.2443461,0.203221 0.4765675,0.336897 0.7278659,0.418991 0.2212451,0.07228 0.3473081,0.0864 0.6829133,0.07654 0.3385162,-0.01 0.3567294,-0.01382 0.7467764,-0.158541 l 0.2646446,-0.09819 0.2061447,1.08e-4 c 0.3225014,1.69e-4 0.3723145,0.0274 0.8404361,0.459397 0.3161548,0.291759 0.4601741,0.403959 0.6355538,0.495136 0.1369611,0.0712 0.3653959,0.153195 0.5215082,0.187181 0.1431313,0.03116 0.6749488,0.03004 0.8297314,-0.0018 z"
     id="path10" />
  <path
     style="fill:#ffcc00;stroke-width:0.0106386"
     d="M 3.9405352,6.6633774 C 3.897321,6.6583515 3.34378,6.5488054 3.1397423,6.5049001 L 3.012884,6.4776025 3.0088673,4.1331473 3.0048505,1.788692 2.9429693,1.7183913 C 2.7600825,1.5106208 2.7156713,1.1887377 2.8374221,0.95340735 2.8727466,0.8851292 3.0394482,0.65098956 3.2937754,0.31243936 L 3.4938652,0.04608782 3.6434557,0.24108158 C 4.1440015,0.89355152 4.2063514,0.99603799 4.2210073,1.190421 4.235431,1.3817244 4.1708579,1.5811952 4.0500909,1.7183937 l -0.061883,0.070303 -0.00401,2.4396456 -0.00401,2.4396456 z"
     id="path11" />
  <path
     style="fill:#ffcc00;stroke-width:0.0106386"
     d="M 3.5203171,6.574419 C 3.293558,6.5287703 3.0887913,6.4865115 3.0652801,6.4805104 L 3.0225325,6.4695995 3.0177083,4.1251478 3.012884,1.7806961 2.954106,1.7156415 C 2.8040511,1.5495625 2.7420169,1.2694715 2.8068996,1.050988 2.8327402,0.96397325 2.9768931,0.75027452 3.2995,0.32073521 l 0.1938135,-0.25805566 0.101815,0.13119739 c 0.3214578,0.41422588 0.488861,0.65012747 0.5600941,0.7892747 0.035839,0.070009 0.046018,0.11411376 0.051592,0.22356036 0.010416,0.2045158 -0.045297,0.3680668 -0.1761375,0.5170723 l -0.050498,0.057509 -0.00475,2.4393829 C 3.9717528,6.106015 3.9663504,6.6597593 3.95164,6.6587381 3.9411716,6.6580112 3.7470763,6.6200676 3.5203171,6.574419 Z"
     id="path12" />
  <path
     style="fill:#ff00ff;stroke-width:0.0106386"
     d="M 5.7945963,11.979357 C 5.5224182,11.930069 5.2439231,11.814431 5.0075555,11.652557 4.939624,11.606035 4.7555996,11.442578 4.5986125,11.28932 4.3062129,11.003865 4.218283,10.93258 4.0915861,10.878271 3.9688285,10.825651 3.7739619,10.793528 3.6482946,10.805195 3.4965951,10.819279 3.4389715,10.836251 3.2321262,10.927772 2.9655545,11.045719 2.7917198,11.085859 2.5054509,11.095569 2.231688,11.104854 2.0566965,11.081244 1.8257236,11.003861 1.5593231,10.914609 1.2540605,10.72691 1.0741839,10.541758 l -0.067541,-0.06952 0.00411,-0.8072919 0.00411,-0.807292 0.3675411,0.4926591 c 0.3028287,0.4059109 0.385196,0.5060147 0.4677932,0.5685194 0.1814184,0.1372864 0.3597985,0.1981144 0.5809743,0.1981144 0.1588175,0 0.2771915,-0.02842 0.4610386,-0.110683 0.3027097,-0.1354514 0.5110868,-0.1815943 0.8183945,-0.1812246 0.2521674,3.034e-4 0.4238293,0.028258 0.6386502,0.1040033 0.3215242,0.1133683 0.4848736,0.2258683 0.8662068,0.5965663 0.3147215,0.305944 0.4037322,0.372806 0.5924028,0.444998 0.095349,0.03648 0.1300389,0.04098 0.320976,0.04159 0.292158,9.36e-4 0.3729064,-0.02618 0.6713975,-0.225504 0.269054,-0.179662 0.3586984,-0.226358 0.57068,-0.297266 0.4857962,-0.162501 1.0069606,-0.131883 1.4772951,0.08679 0.069855,0.03248 0.2269543,0.126504 0.3491087,0.208947 0.2960568,0.199811 0.3796483,0.227975 0.6738379,0.227032 0.1909374,-6.12e-4 0.2256274,-0.0051 0.3209764,-0.04159 0.190086,-0.07273 0.278316,-0.138839 0.589924,-0.441994 0.328331,-0.319424 0.482751,-0.435328 0.718583,-0.5393529 0.274412,-0.1210418 0.639301,-0.1884784 0.899109,-0.166168 0.271128,0.023283 0.434149,0.068383 0.809366,0.2239129 0.122213,0.05066 0.164893,0.06023 0.297091,0.06666 0.08852,0.0043 0.196754,-6.38e-4 0.253717,-0.01158 0.127973,-0.02458 0.331747,-0.1237375 0.430608,-0.2095404 0.04265,-0.037019 0.240671,-0.2846932 0.44004,-0.5503869 L 14.993062,8.8590771 V 9.6677685 10.47646 l -0.107036,0.10261 c -0.34966,0.335199 -0.817545,0.521027 -1.311865,0.521027 -0.307758,0 -0.538224,-0.05036 -0.832833,-0.182001 -0.19922,-0.08902 -0.29482,-0.111001 -0.475718,-0.109402 -0.177102,0.0016 -0.342675,0.05005 -0.488846,0.143151 -0.04947,0.03151 -0.214821,0.179982 -0.367448,0.329942 -0.297281,0.292089 -0.434109,0.398665 -0.654969,0.510161 -0.289278,0.146034 -0.566597,0.212014 -0.8911161,0.212014 -0.2324081,0 -0.4195419,-0.03024 -0.6370107,-0.102939 C 9.0151221,11.830455 8.9115964,11.776894 8.6747864,11.615731 8.3699945,11.408301 8.2200793,11.358872 7.9403026,11.37356 c -0.2267199,0.0119 -0.3333336,0.05323 -0.5983799,0.231973 -0.3232636,0.218002 -0.5287031,0.308393 -0.8370341,0.368288 -0.1855868,0.03605 -0.5270802,0.03871 -0.7102923,0.0055 z"
     id="path13" />
</svg>
