<?xml version="1.0" encoding="UTF-8" standalone="no"?>
<svg
   width="16"
   height="16"
   fill="currentColor"
   class="bi bi-camera-fill"
   viewBox="0 0 16 16"
   version="1.1"
   id="svg2"
   sodipodi:docname="camera-fill.svg"
   inkscape:version="1.4 (e7c3feb1, 2024-10-09)"
   xmlns:inkscape="http://www.inkscape.org/namespaces/inkscape"
   xmlns:sodipodi="http://sodipodi.sourceforge.net/DTD/sodipodi-0.dtd"
   xmlns="http://www.w3.org/2000/svg"
   xmlns:svg="http://www.w3.org/2000/svg">
  <defs
     id="defs2" />
  <sodipodi:namedview
     id="namedview2"
     pagecolor="#ffffff"
     bordercolor="#000000"
     borderopacity="0.25"
     inkscape:showpageshadow="2"
     inkscape:pageopacity="0.0"
     inkscape:pagecheckerboard="0"
     inkscape:deskcolor="#d1d1d1"
     inkscape:zoom="63.0625"
     inkscape:cx="7.9920714"
     inkscape:cy="8"
     inkscape:window-width="1200"
     inkscape:window-height="1186"
     inkscape:window-x="0"
     inkscape:window-y="25"
     inkscape:window-maximized="0"
     inkscape:current-layer="svg2" />
  <path
     d="M10.5 8.5a2.5 2.5 0 1 1-5 0 2.5 2.5 0 0 1 5 0"
     id="path1" />
  <path
     d="M2 4a2 2 0 0 0-2 2v6a2 2 0 0 0 2 2h12a2 2 0 0 0 2-2V6a2 2 0 0 0-2-2h-1.172a2 2 0 0 1-1.414-.586l-.828-.828A2 2 0 0 0 9.172 2H6.828a2 2 0 0 0-1.414.586l-.828.828A2 2 0 0 1 3.172 4zm.5 2a.5.5 0 1 1 0-1 .5.5 0 0 1 0 1m9 2.5a3.5 3.5 0 1 1-7 0 3.5 3.5 0 0 1 7 0"
     id="path2" />
  <path
     style="fill:#008080;stroke-width:0.0106386"
     d="M 7.6828543,10.972932 C 6.7426887,10.842359 5.9568356,10.201358 5.6475409,9.3127772 5.5453135,9.0190854 5.5184462,8.8494064 5.5187657,8.4995045 c 2.401e-4,-0.2628775 0.00582,-0.3352368 0.037239,-0.4828434 0.2164822,-1.0170582 0.9946376,-1.780224 2.00792,-1.9692415 0.2204608,-0.041125 0.6516898,-0.041125 0.8721506,0 0.8945129,0.1668623 1.6366457,0.8050206 1.9196197,1.6506764 0.1024,0.3060175 0.123365,0.439657 0.124477,0.7934798 8.64e-4,0.2747793 -0.004,0.3403398 -0.03607,0.490772 -0.212796,0.9968091 -0.9617533,1.7496072 -1.9500137,1.9600132 -0.1749921,0.03726 -0.6375784,0.05469 -0.811236,0.03057 z"
     id="path3" />
  <path
     style="fill:#4d4d4d;stroke-width:0.0106386"
     d="M 1.650697,13.960648 C 0.9380705,13.831958 0.3440617,13.314233 0.11144613,12.619071 0.00166869,12.291006 0.00680223,12.482051 0.01215524,8.9239708 L 0.01698069,5.716551 0.05076593,5.5817641 C 0.15136071,5.1804391 0.31959746,4.8737638 0.58639846,4.6053705 0.86705148,4.3230427 1.1881429,4.1449478 1.5885158,4.0495412 1.6778141,4.0282618 1.8477921,4.0216983 2.5609514,4.0119914 3.3616937,4.0010926 3.4365228,3.9977226 3.5796849,3.9661117 3.854667,3.9053943 4.046528,3.8244848 4.2893954,3.6668204 4.3951399,3.5981732 4.5454773,3.4592361 4.987116,3.0220087 5.4550364,2.5587622 5.5769828,2.4467827 5.7096236,2.3585534 5.969113,2.1859477 6.2089388,2.0882411 6.4928059,2.0394794 c 0.2188524,-0.037594 2.7926387,-0.038515 3.0075947,-0.00108 0.1853646,0.032284 0.2857095,0.062044 0.4564966,0.1353849 0.3209908,0.1378424 0.4159008,0.2143514 1.0718438,0.8640408 0.429347,0.4252531 0.576082,0.5606502 0.681864,0.6291763 0.243461,0.1577167 0.435044,0.2384593 0.70971,0.2991069 0.143162,0.031611 0.217991,0.034981 1.018734,0.04588 0.713159,0.00971 0.883137,0.01627 0.972435,0.03755 0.598216,0.1425516 1.073235,0.5039619 1.348958,1.0263334 0.0833,0.1578183 0.153237,0.3515233 0.194102,0.5376041 0.02836,0.1291419 0.0296,0.2709331 0.0296,3.3855302 0,3.059684 -0.0017,3.258447 -0.02828,3.38181 -0.15495,0.718072 -0.651983,1.279444 -1.335513,1.508388 -0.312151,0.104554 0.208254,0.09706 -6.6343171,0.09549 -5.3055881,-0.0012 -6.2282655,-0.0047 -6.3353329,-0.02405 z M 8.4153148,11.980447 C 8.9540538,11.917427 9.490723,11.72173 9.9304095,11.427966 10.151703,11.280114 10.254939,11.196746 10.43994,11.01649 11.345309,10.134345 11.704503,8.8720146 11.400153,7.6419714 11.308962,7.2734162 11.134938,6.8781355 10.926569,6.5662627 10.092515,5.3179072 8.5990264,4.7389545 7.1424669,5.0993511 6.4239334,5.2771379 5.762004,5.6988967 5.2733076,6.2903152 4.9735868,6.6530361 4.7172346,7.1675427 4.5998467,7.6419714 4.361211,8.6064284 4.5347282,9.6264522 5.0749834,10.43507 c 0.3487534,0.52199 0.8246828,0.940657 1.3769391,1.211269 0.6076842,0.297772 1.286511,0.413287 1.9633923,0.334108 z M 2.7133815,5.9599862 C 3.0326831,5.8105223 3.1054982,5.3765293 2.8517169,5.135477 2.7567439,5.0452676 2.6656434,5.0066548 2.5292369,4.9987944 2.3697332,4.989603 2.2521757,5.0327364 2.1452153,5.1396967 1.8137779,5.471134 2.066099,6.0361345 2.5310227,6.0036015 2.5934096,5.999236 2.6672714,5.9815702 2.7133815,5.9599862 Z"
     id="path4" />
  <path
     style="fill:#008080;stroke-width:0.0106386"
     d="M 2.3705917,5.9735789 C 2.2671633,5.9443038 2.1554326,5.8610854 2.093087,5.7668899 1.8408879,5.3858523 2.2048768,4.9051377 2.648042,5.0339694 2.7238806,5.0560163 2.7588307,5.0789863 2.8399222,5.1600778 2.958826,5.2789817 2.9980293,5.381878 2.985221,5.5414421 2.961315,5.8392608 2.6555544,6.0542365 2.3705917,5.9735789 Z"
     id="path5" />
</svg>
