<?xml version="1.0" encoding="UTF-8" standalone="no"?>
<svg
   width="16"
   height="16"
   fill="currentColor"
   class="bi bi-camera-reels-fill"
   viewBox="0 0 16 16"
   version="1.1"
   id="svg3"
   sodipodi:docname="camera-reels-fill.svg"
   inkscape:version="1.4 (e7c3feb1, 2024-10-09)"
   xmlns:inkscape="http://www.inkscape.org/namespaces/inkscape"
   xmlns:sodipodi="http://sodipodi.sourceforge.net/DTD/sodipodi-0.dtd"
   xmlns="http://www.w3.org/2000/svg"
   xmlns:svg="http://www.w3.org/2000/svg">
  <defs
     id="defs3" />
  <sodipodi:namedview
     id="namedview3"
     pagecolor="#ffffff"
     bordercolor="#000000"
     borderopacity="0.25"
     inkscape:showpageshadow="2"
     inkscape:pageopacity="0.0"
     inkscape:pagecheckerboard="0"
     inkscape:deskcolor="#d1d1d1"
     inkscape:zoom="63.0625"
     inkscape:cx="7.9920714"
     inkscape:cy="8"
     inkscape:window-width="1200"
     inkscape:window-height="1186"
     inkscape:window-x="0"
     inkscape:window-y="25"
     inkscape:window-maximized="0"
     inkscape:current-layer="svg3" />
  <path
     d="M6 3a3 3 0 1 1-6 0 3 3 0 0 1 6 0"
     id="path1" />
  <path
     d="M9 6a3 3 0 1 1 0-6 3 3 0 0 1 0 6"
     id="path2" />
  <path
     d="M9 6h.5a2 2 0 0 1 1.983 1.738l3.11-1.382A1 1 0 0 1 16 7.269v7.462a1 1 0 0 1-1.406.913l-3.111-1.382A2 2 0 0 1 9.5 16H2a2 2 0 0 1-2-2V8a2 2 0 0 1 2-2z"
     id="path3" />
  <path
     style="fill:#ff0000;stroke-width:0.0106386"
     d="M 1.8473736,15.983181 C 1.5711691,15.960803 1.3677075,15.903707 1.1089821,15.775973 0.56617586,15.507986 0.17787972,14.998206 0.04390275,14.377668 0.01759396,14.255814 0.01585728,14.046473 0.01585728,10.997027 c 0,-3.1145973 0.0012397,-3.2563886 0.02959934,-3.3855305 C 0.20327734,6.8928261 0.69204548,6.3419532 1.3744873,6.1135939 1.7083465,6.0018776 1.4195629,6.0083592 5.8196234,6.0138259 c 3.750955,0.00466 3.9707221,0.00646 4.0832507,0.033428 0.6199839,0.1485863 1.1002669,0.5199493 1.3741659,1.0625302 0.07973,0.1579478 0.149919,0.3618952 0.179477,0.5215339 0.0109,0.05887 0.02612,0.1070367 0.03381,0.1070367 0.0077,0 0.718681,-0.3129231 1.579969,-0.6953847 0.861288,-0.3824617 1.601656,-0.7075795 1.645264,-0.722484 0.04361,-0.014905 0.144115,-0.031206 0.22335,-0.036224 0.450654,-0.028544 0.859008,0.2516283 1.009974,0.6929432 l 0.03526,0.1030723 0.0044,3.8691775 c 0.0049,4.332268 0.01426,3.978937 -0.111626,4.230446 -0.122411,0.244569 -0.370185,0.443096 -0.637442,0.510745 -0.12178,0.03083 -0.356293,0.03065 -0.476984,-3.59e-4 -0.05198,-0.01335 -0.809047,-0.341601 -1.682369,-0.729435 -0.873323,-0.387834 -1.59152,-0.705153 -1.595994,-0.705153 -0.0045,0 -0.01633,0.04703 -0.02634,0.104522 -0.06972,0.400362 -0.279654,0.781045 -0.596723,1.082066 -0.34193,0.324623 -0.743654,0.502575 -1.2222938,0.541442 -0.2358679,0.01915 -7.5546059,0.01864 -7.7914086,-5.48e-4 z"
     id="path4" />
  <path
     style="fill:#ff0000;stroke-width:0.0106386"
     d="M 2.6957384,5.9778098 C 1.2928468,5.8193486 0.19628158,4.7361552 0.03142327,3.3459842 -0.15847303,1.7446798 0.96947501,0.27826911 2.5749891,0.03917225 2.7929851,0.0067078 3.2030974,0.00703234 3.4240739,0.03984417 4.3208019,0.17299549 5.0968825,0.68998386 5.5661561,1.4667988 5.968669,2.1331011 6.0914635,2.9677783 5.8989881,3.7291744 5.6085556,4.8780703 4.6709017,5.7440661 3.4965312,5.9480289 3.2867539,5.9844626 2.8864389,5.99935 2.6957384,5.9778098 Z"
     id="path5" />
  <path
     style="fill:#ff0000;stroke-width:0.0106386"
     d="M 8.6994191,5.9759277 C 7.5028241,5.850848 6.4860896,5.013214 6.1386526,3.8662473 6.0174627,3.4661728 5.9792617,2.9633548 6.0400871,2.5688853 6.246319,1.231413 7.2793377,0.21822606 8.6263627,0.03226046 8.8157929,0.00610839 9.237225,0.01030057 9.4293883,0.04024852 10.694448,0.23740353 11.67789,1.17056 11.932176,2.415062 12.108197,3.2765319 11.876354,4.2052622 11.313854,4.8919722 11.192727,5.0398462 10.937988,5.2837699 10.790882,5.3927401 10.181456,5.8441793 9.4337085,6.0526828 8.6994191,5.9759277 Z"
     id="path6" />
</svg>
