<?xml version="1.0" encoding="UTF-8" standalone="no"?>
<svg
   width="16"
   height="16"
   fill="currentColor"
   class="bi bi-chat-dots"
   viewBox="0 0 16 16"
   version="1.1"
   id="svg2"
   sodipodi:docname="chat-dots.svg"
   inkscape:version="1.4 (e7c3feb1, 2024-10-09)"
   xmlns:inkscape="http://www.inkscape.org/namespaces/inkscape"
   xmlns:sodipodi="http://sodipodi.sourceforge.net/DTD/sodipodi-0.dtd"
   xmlns="http://www.w3.org/2000/svg"
   xmlns:svg="http://www.w3.org/2000/svg">
  <defs
     id="defs2" />
  <sodipodi:namedview
     id="namedview2"
     pagecolor="#ffffff"
     bordercolor="#000000"
     borderopacity="0.25"
     inkscape:showpageshadow="2"
     inkscape:pageopacity="0.0"
     inkscape:pagecheckerboard="0"
     inkscape:deskcolor="#d1d1d1"
     inkscape:zoom="63.0625"
     inkscape:cx="8"
     inkscape:cy="8"
     inkscape:window-width="2112"
     inkscape:window-height="1186"
     inkscape:window-x="0"
     inkscape:window-y="25"
     inkscape:window-maximized="0"
     inkscape:current-layer="svg2" />
  <path
     d="M5 8a1 1 0 1 1-2 0 1 1 0 0 1 2 0m4 0a1 1 0 1 1-2 0 1 1 0 0 1 2 0m3 1a1 1 0 1 0 0-2 1 1 0 0 0 0 2"
     id="path1" />
  <path
     d="m2.165 15.803.02-.004c1.83-.363 2.948-.842 3.468-1.105A9 9 0 0 0 8 15c4.418 0 8-3.134 8-7s-3.582-7-8-7-8 3.134-8 7c0 1.76.743 3.37 1.97 4.6a10.4 10.4 0 0 1-.524 2.318l-.003.011a11 11 0 0 1-.244.637c-.079.186.074.394.273.362a22 22 0 0 0 .693-.125m.8-3.108a1 1 0 0 0-.287-.801C1.618 10.83 1 9.468 1 8c0-3.192 3.004-6 7-6s7 2.808 7 6-3.004 6-7 6a8 8 0 0 1-2.088-.272 1 1 0 0 0-.711.074c-.387.196-1.24.57-2.634.893a11 11 0 0 0 .398-2"
     id="path2" />
  <path
     style="fill:#800080;stroke-width:0.0106386"
     d="m 1.32739,15.894267 c -0.066395,-0.03272 -0.1097061,-0.08786 -0.1309324,-0.166691 -0.020091,-0.07461 -0.023237,-0.06307 0.1115798,-0.409439 0.3152925,-0.81005 0.5368528,-1.673336 0.6441886,-2.510012 L 1.980274,12.589492 1.852694,12.459265 C 1.3771544,11.973861 0.90978201,11.299318 0.61494008,10.672855 0.31572496,10.0371 0.13490355,9.4029688 0.04495185,8.6739346 0.00132353,8.3203389 0.00571796,7.6149398 0.05379323,7.2547076 0.17620573,6.3374601 0.45342283,5.538958 0.92025874,4.7589215 1.3709717,4.005825 2.0395516,3.2683902 2.7703835,2.7182582 4.0154264,1.7810551 5.4483365,1.2287807 7.0961348,1.0510205 c 0.3778605,-0.040763 1.4319784,-0.040294 1.8156591,8.064e-4 1.7658101,0.1891582 3.3154901,0.826946 4.6144701,1.8991357 0.241442,0.1992888 0.804159,0.7711968 0.997072,1.0133585 0.804935,1.0104257 1.258169,2.0584661 1.422954,3.2903865 0.04822,0.3605086 0.05251,1.0832923 0.0085,1.4271556 -0.09938,0.7758489 -0.288585,1.4164718 -0.613522,2.0773038 -0.618945,1.258764 -1.682735,2.361647 -2.996333,3.106443 -1.062365,0.60235 -2.195718,0.953603 -3.5203172,1.09103 -0.3125243,0.03242 -1.4327206,0.02717 -1.7443013,-0.0082 -0.457493,-0.05191 -0.8609077,-0.122645 -1.2414998,-0.217697 l -0.1869902,-0.0467 -0.090512,0.04533 c -0.8758314,0.43864 -2.2857121,0.864184 -3.7385547,1.128409 -0.3870512,0.07039 -0.4213668,0.07292 -0.4953305,0.03646 z m 1.6369444,-1.28887 c 0.8338596,-0.215036 1.463015,-0.433655 2.119773,-0.736579 0.4061673,-0.187342 0.5445786,-0.203391 0.9258034,-0.10735 0.3610724,0.09096 0.7664092,0.162328 1.1892963,0.209387 0.2516797,0.02801 1.0793826,0.03787 1.3744803,0.01638 2.0867026,-0.151962 3.9224626,-1.048224 5.1340416,-2.506563 0.691718,-0.832598 1.117798,-1.7980051 1.263243,-2.8622399 0.03858,-0.2823239 0.03918,-0.9458279 0.0011,-1.2323657 C 14.765285,5.8297903 13.938593,4.4731528 12.57182,3.4471377 11.547159,2.6779414 10.269347,2.1920869 8.8562934,2.0344062 8.5447329,1.9996396 7.5285983,1.9947691 7.2229931,2.0265774 5.7688955,2.1779246 4.4750118,2.6622235 3.42801,3.4470346 2.0657876,4.4681286 1.2310693,5.8368439 1.0285153,7.3815659 0.9943508,7.6421125 0.9898428,8.3014078 1.0204953,8.555005 c 0.1495762,1.2376256 0.6578881,2.294803 1.5685892,3.262323 0.3006602,0.319418 0.3797631,0.505285 0.3628748,0.852642 -0.02007,0.412799 -0.1594872,1.171623 -0.3287267,1.789203 -0.034253,0.124993 -0.062278,0.230246 -0.062278,0.233895 0,0.01431 0.050446,0.0033 0.403383,-0.08767 z"
     id="path3" />
  <path
     style="fill:#800080;stroke-width:0.0106386"
     d="M 3.7892864,8.9677149 C 3.4565823,8.8952866 3.1663365,8.6310253 3.0573312,8.3012884 3.0224532,8.1957838 3.0153004,8.1450688 3.0148377,8 3.0143456,7.8456764 3.019794,7.8099523 3.0621048,7.6900826 3.2675013,7.1081785 3.9003566,6.8473284 4.4445887,7.1202509 4.9851113,7.391313 5.154857,8.0790046 4.8032801,8.5734193 4.5770635,8.8915427 4.1687407,9.0503207 3.7892864,8.9677149 Z"
     id="path4" />
  <path
     style="fill:#800080;stroke-width:0.0106386"
     d="M 7.8493558,8.981849 C 7.7049128,8.9469732 7.6603668,8.9318286 7.555996,8.8821139 7.3819781,8.7992244 7.2018533,8.6164459 7.1155556,8.4351845 7.0369346,8.2700477 7.0120912,8.165553 7.0120912,8 c 0,-0.165553 0.024843,-0.2700477 0.1034644,-0.4351845 C 7.2025258,7.3821416 7.3811755,7.2015969 7.5612225,7.1144213 7.8497166,6.9747374 8.1566034,6.9749471 8.4419567,7.1150233 8.6190118,7.2019373 8.7985851,7.384475 8.8844445,7.5648155 8.9630654,7.7299523 8.9879088,7.834447 8.9879088,8 c 0,0.165553 -0.024843,0.2700477 -0.1034643,0.4351845 C 8.77115,8.6731501 8.5411458,8.8683668 8.2747673,8.9526492 c -0.076021,0.024053 -0.3646707,0.043866 -0.4254115,0.0292 z"
     id="path5" />
  <path
     style="fill:#800080;stroke-width:0.0106386"
     d="M 11.761594,8.9601373 C 11.08046,8.775387 10.792843,7.9945441 11.19672,7.4265807 11.391712,7.152368 11.726429,6.9918305 12.05813,7.0134299 c 0.405482,0.026404 0.741455,0.2848106 0.879765,0.6766527 0.04208,0.119225 0.04782,0.1564238 0.04782,0.3099174 0,0.1534936 -0.0057,0.1906924 -0.04782,0.3099174 -0.106966,0.3030436 -0.339053,0.5342244 -0.634823,0.6323437 -0.156501,0.051918 -0.387819,0.059555 -0.541478,0.017876 z"
     id="path7" />
</svg>
