<?xml version="1.0" encoding="UTF-8" standalone="no"?>
<svg
   width="16"
   height="16"
   fill="currentColor"
   class="bi bi-pencil-square"
   viewBox="0 0 16 16"
   version="1.1"
   id="svg2"
   sodipodi:docname="pencil-square.svg"
   inkscape:version="1.4 (e7c3feb1, 2024-10-09)"
   xmlns:inkscape="http://www.inkscape.org/namespaces/inkscape"
   xmlns:sodipodi="http://sodipodi.sourceforge.net/DTD/sodipodi-0.dtd"
   xmlns="http://www.w3.org/2000/svg"
   xmlns:svg="http://www.w3.org/2000/svg">
  <defs
     id="defs2" />
  <sodipodi:namedview
     id="namedview2"
     pagecolor="#ffffff"
     bordercolor="#000000"
     borderopacity="0.25"
     inkscape:showpageshadow="2"
     inkscape:pageopacity="0.0"
     inkscape:pagecheckerboard="0"
     inkscape:deskcolor="#d1d1d1"
     inkscape:zoom="63.0625"
     inkscape:cx="7.9920714"
     inkscape:cy="7.9920714"
     inkscape:window-width="1952"
     inkscape:window-height="1241"
     inkscape:window-x="0"
     inkscape:window-y="33"
     inkscape:window-maximized="0"
     inkscape:current-layer="svg2" />
  <path
     d="M15.502 1.94a.5.5 0 0 1 0 .706L14.459 3.69l-2-2L13.502.646a.5.5 0 0 1 .707 0l1.293 1.293zm-1.75 2.456-2-2L4.939 9.21a.5.5 0 0 0-.121.196l-.805 2.414a.25.25 0 0 0 .316.316l2.414-.805a.5.5 0 0 0 .196-.12l6.813-6.814z"
     id="path1" />
  <path
     fill-rule="evenodd"
     d="M1 13.5A1.5 1.5 0 0 0 2.5 15h11a1.5 1.5 0 0 0 1.5-1.5v-6a.5.5 0 0 0-1 0v6a.5.5 0 0 1-.5.5h-11a.5.5 0 0 1-.5-.5v-11a.5.5 0 0 1 .5-.5H9a.5.5 0 0 0 0-1H2.5A1.5 1.5 0 0 0 1 2.5z"
     id="path2" />
  <path
     style="fill:#ff00ff;stroke-width:0.0106386"
     d="m 4.142211,12.112379 c -0.071957,-0.03547 -0.1183365,-0.106856 -0.1258342,-0.193691 -0.00542,-0.06283 0.0526,-0.249585 0.4063556,-1.307871 0.2269762,-0.6790162 0.430313,-1.26415 0.4518595,-1.3002974 0.021546,-0.036147 1.577383,-1.6034763 3.4574146,-3.4829528 l 3.4182395,-3.41723 0.995031,0.9950308 0.99503,0.9950307 -3.409301,3.4096606 C 8.4558903,9.6853721 6.8960371,11.237617 6.8646657,11.259493 c -0.068012,0.04742 -2.5508448,0.879442 -2.6227299,0.878897 -0.026226,-1.98e-4 -0.071102,-0.0119 -0.099725,-0.02601 z"
     id="path3" />
  <path
     style="fill:#ff00ff;stroke-width:0.0106386"
     d="m 13.462854,2.6799011 -0.990965,-0.9910604 0.53908,-0.5397921 c 0.628366,-0.62919545 0.645062,-0.64146023 0.859265,-0.63119552 0.08599,0.00412 0.145624,0.0166183 0.195177,0.0409013 0.05097,0.0249744 0.277782,0.24243193 0.793652,0.76090152 0.811758,0.8158474 0.786153,0.7827497 0.773573,0.9999451 -0.01097,0.189375 -0.02617,0.2091446 -0.621622,0.8082484 -0.296889,0.2987116 -0.543712,0.5431119 -0.548496,0.5431119 -0.0048,0 -0.454633,-0.445977 -0.999664,-0.9910602 z"
     id="path4" />
  <path
     style="fill:#666666;stroke-width:0.0106386"
     d="m 4.1295535,12.094033 c -0.070497,-0.04449 -0.1077938,-0.132288 -0.096545,-0.227267 0.00857,-0.07235 0.5804549,-1.811328 0.7615431,-2.3156867 l 0.08361,-0.232865 0.6679475,-0.6789288 C 5.9134798,8.2658748 7.4596997,6.715171 8.9821526,5.1932771 l 2.7680964,-2.7670796 0.987115,0.9874292 0.987116,0.9874292 -3.433102,3.4296933 -3.4331025,3.4296938 -0.309217,0.108215 c -0.731099,0.255859 -2.2186114,0.741941 -2.2913776,0.748764 -0.060473,0.0057 -0.090876,1.21e-4 -0.1281274,-0.02339 z"
     id="path5" />
  <path
     style="fill:#d4aa00;stroke-width:0.0106386"
     d="M 2.3230922,14.98193 C 2.0906902,14.950018 1.8224363,14.845672 1.6437103,14.717663 1.3408048,14.500713 1.1115894,14.152597 1.0397887,13.80047 1.0174042,13.690692 1.0148662,13.100002 1.0148662,8 c 0,-5.1219027 0.00246,-5.6902202 0.025146,-5.8004703 C 1.1133086,1.8432694 1.3393075,1.499296 1.641997,1.2833012 1.7710656,1.1911998 1.9716823,1.0980688 2.1407334,1.0517761 l 0.1347869,-0.03691 h 3.4251735 3.4251734 l 0.09983,0.05413 c 0.3656642,0.1982722 0.3437894,0.7128667 -0.037624,0.8850773 -0.058721,0.026513 -0.2514402,0.028531 -3.4398081,0.036015 l -3.3776016,0.00793 -0.073299,0.033892 c -0.1005077,0.046473 -0.1984,0.138718 -0.249043,0.2346754 l -0.042376,0.080293 V 8 13.653122 l 0.042376,0.08029 c 0.050643,0.09596 0.1485353,0.188202 0.249043,0.234675 l 0.073299,0.03389 H 8 13.629336 l 0.08976,-0.04408 c 0.09858,-0.04841 0.182541,-0.131698 0.238591,-0.236672 l 0.03637,-0.06811 0.008,-3.123885 c 0.006,-2.3477934 0.0127,-3.1368285 0.0268,-3.175984 0.05046,-0.1401127 0.179334,-0.2705183 0.31033,-0.3140283 0.241407,-0.080183 0.492594,0.026256 0.600566,0.254486 l 0.04531,0.095784 1.2e-5,3.1443753 c 1.4e-5,3.478523 0.0067,3.249275 -0.102153,3.518046 -0.177551,0.438515 -0.557865,0.771238 -1.02539,0.897078 l -0.133098,0.03582 -5.6769081,0.0018 c -3.1222994,0.001 -5.6983152,-0.0011 -5.7244797,-0.0047 z"
     id="path6" />
  <path
     style="fill:#d4aa00;stroke-width:0.0106386"
     d="m 4.1204234,12.071279 c -0.098533,-0.08329 -0.09911,-0.145263 -0.0042,-0.45147 0.091852,-0.296343 0.6144347,-1.8680618 0.7053125,-2.1212956 l 0.068288,-0.1902874 3.429604,-3.4331021 3.4296041,-3.4331021 0.97978,0.9791884 0.979781,0.9791885 -3.41723,3.4186703 c -2.7195095,2.720656 -3.4317994,3.425092 -3.4885875,3.450123 -0.084885,0.03741 -1.8367181,0.623916 -2.2398565,0.749888 -0.3129384,0.09779 -0.3793056,0.105615 -0.4424951,0.0522 z"
     id="path7" />
</svg>
