<?xml version="1.0" encoding="UTF-8" standalone="no"?>
<svg
   width="16"
   height="16"
   fill="currentColor"
   class="bi bi-person-square"
   viewBox="0 0 16 16"
   version="1.1"
   id="svg2"
   sodipodi:docname="person-square.svg"
   inkscape:version="1.4 (e7c3feb1, 2024-10-09)"
   xmlns:inkscape="http://www.inkscape.org/namespaces/inkscape"
   xmlns:sodipodi="http://sodipodi.sourceforge.net/DTD/sodipodi-0.dtd"
   xmlns="http://www.w3.org/2000/svg"
   xmlns:svg="http://www.w3.org/2000/svg">
  <defs
     id="defs2" />
  <sodipodi:namedview
     id="namedview2"
     pagecolor="#ffffff"
     bordercolor="#000000"
     borderopacity="0.25"
     inkscape:showpageshadow="2"
     inkscape:pageopacity="0.0"
     inkscape:pagecheckerboard="0"
     inkscape:deskcolor="#d1d1d1"
     inkscape:zoom="63.0625"
     inkscape:cx="9.6412289"
     inkscape:cy="4.1942517"
     inkscape:window-width="1200"
     inkscape:window-height="1186"
     inkscape:window-x="489"
     inkscape:window-y="78"
     inkscape:window-maximized="0"
     inkscape:current-layer="svg2" />
  <path
     d="M11 6a3 3 0 1 1-6 0 3 3 0 0 1 6 0"
     id="path1" />
  <path
     d="M2 0a2 2 0 0 0-2 2v12a2 2 0 0 0 2 2h12a2 2 0 0 0 2-2V2a2 2 0 0 0-2-2zm12 1a1 1 0 0 1 1 1v12a1 1 0 0 1-1 1v-1c0-1-1-4-6-4s-6 3-6 4v1a1 1 0 0 1-1-1V2a1 1 0 0 1 1-1z"
     id="path2"
     style="fill:#b3b3b3" />
  <path
     style="fill:#800080;stroke-width:0.0106386"
     d="M 1.7522299,14.960141 C 1.3978184,14.867063 1.1059142,14.559612 1.0307132,14.200198 0.99561804,14.032465 0.99561804,1.967535 1.0307132,1.7998018 1.1062788,1.438645 1.4027215,1.1291051 1.7595259,1.0387892 1.8429715,1.0176671 2.5736038,1.0148662 8,1.0148662 c 5.426396,0 6.157029,0.0028 6.240474,0.023923 0.270174,0.068387 0.517022,0.2675017 0.639407,0.5157614 C 15.002674,1.8036391 14.992512,1.2221158 14.992512,8 c 0,6.777884 0.01016,6.196361 -0.112631,6.445449 -0.148068,0.300359 -0.503063,0.539685 -0.800521,0.539685 h -0.0666 l -0.0066,-0.61447 c -0.0076,-0.707572 -0.01657,-0.775903 -0.158111,-1.206599 -0.206001,-0.626824 -0.615891,-1.242148 -1.132792,-1.700538 -0.954151,-0.846146 -2.19115,-1.304424 -3.8985939,-1.444335 -0.3075848,-0.025205 -1.3264396,-0.025164 -1.6333002,6.5e-5 -1.6035928,0.131839 -2.8223967,0.557358 -3.7343905,1.30378 -0.7222962,0.591164 -1.2247934,1.386976 -1.4061845,2.226994 -0.039322,0.1821 -0.04141,0.217143 -0.048423,0.812704 l -0.00733,0.622399 -0.073789,-0.001 C 1.8726619,14.98356 1.8002105,14.972784 1.7522422,14.960184 Z M 8.3138063,8.9901028 C 9.6359163,8.8455591 10.699402,7.8734069 10.950409,6.579934 11.185483,5.3685678 10.667512,4.1479223 9.6318925,3.4727324 8.6974273,2.8634919 7.4465803,2.8354315 6.4837133,3.4021089 6.2677482,3.529211 6.0475696,3.7010004 5.8719613,3.8794145 5.6080225,4.1475704 5.4580702,4.3561215 5.3035359,4.6699703 4.7432747,5.8078237 4.9556148,7.1756757 5.8334934,8.0838494 6.4821074,8.7548465 7.399542,9.0900576 8.3138063,8.9901028 Z"
     id="path3" />
  <path
     style="fill:#800080;stroke-width:0.0106386"
     d="M 1.8381409,15.98331 C 1.3520039,15.945384 0.89597804,15.725105 0.55500496,15.363502 0.3995837,15.198677 0.29972946,15.051765 0.19825059,14.838621 0.10975092,14.652739 0.06438099,14.502979 0.03126093,14.287413 c -0.034901,-0.227157 -0.034901,-12.3476688 0,-12.5748263 C 0.06628702,1.484615 0.11074387,1.343144 0.21314425,1.1337958 0.32845512,0.89805334 0.45478213,0.72707882 0.64825367,0.54490648 0.98869761,0.22434531 1.3914836,0.05173941 1.8848282,0.0149971 2.0380979,0.00358221 4.0252578,7.1678097e-5 8.1665015,0.00389986 c 5.5692965,0.00514828 6.0677065,0.00772127 6.1843405,0.03192597 0.511047,0.10605552 0.944178,0.37648889 1.247318,0.77878547 0.111728,0.14827439 0.268517,0.46145 0.314603,0.6284016 0.08346,0.3023275 0.07912,-0.057034 0.07912,6.5569871 0,6.614021 0.0043,6.25466 -0.07912,6.556987 -0.01806,0.06541 -0.07471,0.204559 -0.125907,0.309217 -0.282024,0.576572 -0.788229,0.963608 -1.436014,1.097954 -0.116761,0.02421 -0.613409,0.02652 -6.239841,0.02897 -3.3621407,0.0015 -6.1849278,-0.003 -6.2728601,-0.0098 z m 0.1715336,-1.604717 c 0.00714,-0.706841 0.016912,-0.785508 0.14628,-1.177404 0.5242191,-1.58802 2.0152006,-2.697783 4.0997442,-3.05151 1.1880117,-0.2015942 2.5831523,-0.1867762 3.7097017,0.0394 1.9895336,0.399439 3.4078436,1.511882 3.8928056,3.053299 0.116644,0.370743 0.123249,0.427479 0.131352,1.128285 l 0.0073,0.630327 h 0.06918 c 0.329023,0 0.699138,-0.252695 0.848798,-0.579517 0.101301,-0.221213 0.09409,0.270554 0.09409,-6.421474 0,-6.6920277 0.0072,-6.2002605 -0.09409,-6.4214743 C 14.791838,1.3099268 14.525376,1.0892281 14.24398,1.0228822 14.093697,0.9874495 1.9063251,0.9874495 1.7560424,1.0228822 1.4760994,1.0888838 1.207533,1.311326 1.0851746,1.5785257 0.98387438,1.7997395 0.99108028,1.3079723 0.99108028,8 c 0,6.743028 -0.008629,6.205617 0.10337392,6.438057 0.1543317,0.320286 0.5019678,0.556375 0.8269628,0.561613 l 0.081972,0.0013 z"
     id="path4" />
  <path
     style="fill:#800080;stroke-width:0.0106386"
     d="M 1.8711596,14.9686 C 1.5228008,14.932518 1.1932307,14.659215 1.0688542,14.303271 L 1.032838,14.200198 1.0177374,11.105586 C 0.9984406,7.1510414 1.0209474,1.8390045 1.0574604,1.728444 1.1550004,1.4331291 1.3836266,1.1890578 1.6681284,1.0765226 l 0.092031,-0.036403 2.370664,-0.012772 c 2.7353345,-0.014736 9.9559476,-8.96e-5 10.0852336,0.020458 0.146091,0.023218 0.333537,0.1272281 0.464344,0.257655 0.129888,0.1295107 0.2413,0.3129468 0.268756,0.442498 0.0239,0.1127705 0.03664,11.8656004 0.0133,12.2698804 -0.01588,0.275079 -0.01653,0.278496 -0.07444,0.391201 -0.115735,0.225242 -0.277294,0.382128 -0.505454,0.490832 -0.0989,0.04712 -0.332107,0.09937 -0.352497,0.07898 -0.0038,-0.0038 -0.01309,-0.294668 -0.02074,-0.646462 -0.01589,-0.730926 -0.02219,-0.777835 -0.158375,-1.179838 C 13.4385,11.935076 12.419041,10.965453 11.016291,10.456477 10.457526,10.253734 9.76363,10.105701 9.0148662,10.029499 8.6821097,9.9956348 7.7910949,9.9817399 7.3736373,10.003905 c -1.4088246,0.0748 -2.6347885,0.429596 -3.5361745,1.023368 -0.2669588,0.175855 -0.4855573,0.356148 -0.7300243,0.602102 -0.5379462,0.541218 -0.8973878,1.176699 -1.0639522,1.881031 -0.036992,0.156423 -0.040185,0.205683 -0.052759,0.813773 -0.00736,0.355999 -0.015868,0.648847 -0.018904,0.650773 -0.00304,0.0019 -0.048335,-9.32e-4 -0.1006642,-0.0064 z M 8.420218,8.9830576 C 9.5558536,8.8133775 10.474369,8.0592474 10.846247,6.99121 11.232655,5.881443 10.930519,4.6282003 10.081864,3.820595 9.5111136,3.2774521 8.8060757,2.995216 8.0158573,2.9935455 7.5340542,2.9925268 7.1347379,3.0775724 6.71556,3.2704801 6.2069916,3.5045255 5.6819543,3.9832997 5.3996351,4.4704538 c -0.580261,1.0012652 -0.5438087,2.2511197 0.093303,3.199114 0.480463,0.7149081 1.211759,1.1805178 2.0625315,1.313196 0.1891117,0.029492 0.6682412,0.029655 0.8647484,2.938e-4 z"
     id="path5" />
  <path
     style="fill:#800080;stroke-width:0.0106386"
     d="M 1.8711596,14.9686 C 1.5296012,14.933222 1.2121279,14.675635 1.0745339,14.322244 L 1.0331892,14.216056 1.0213722,12.218038 C 1.0082369,9.9971229 1.0088103,6.0889261 1.0226517,3.4965312 l 0.00906,-1.6967294 0.036499,-0.1030724 C 1.1858073,1.3646411 1.484783,1.0985587 1.8017671,1.0438786 c 0.1435145,-0.024756 12.2529509,-0.024756 12.3964659,0 0.278447,0.048032 0.539754,0.2549524 0.688934,0.5455445 0.05763,0.1122552 0.05955,0.1215907 0.07418,0.3610229 0.02013,0.3292616 0.02013,11.769846 0,12.099108 -0.01459,0.238715 -0.01671,0.24906 -0.07339,0.359486 -0.115579,0.225145 -0.277202,0.382109 -0.505401,0.490832 -0.09883,0.04709 -0.332103,0.09938 -0.352471,0.07901 -0.0037,-0.0037 -0.01287,-0.287518 -0.02027,-0.630605 -0.01503,-0.69644 -0.024,-0.774226 -0.126148,-1.09374 -0.195219,-0.610648 -0.499769,-1.12288 -0.935546,-1.573531 C 12.127131,10.831995 11.008818,10.313116 9.5302279,10.09516 8.9391575,10.008031 8.806089,9.9997417 8,9.9998321 c -0.8030289,9.02e-5 -0.9183125,0.00724 -1.5127857,0.09378 -1.6370642,0.238324 -2.8848812,0.871843 -3.6777445,1.867199 -0.3761612,0.472231 -0.5982744,0.911777 -0.7429829,1.470309 l -0.063681,0.245788 -0.012557,0.647097 c -0.00691,0.355904 -0.01512,0.648752 -0.018252,0.650773 -0.00313,0.002 -0.048509,-7.58e-4 -0.1008378,-0.0062 z M 8.5951657,8.9536327 C 9.5281695,8.7547268 10.282612,8.1764302 10.697794,7.3419227 11.3394,6.0523056 10.970987,4.4718194 9.8258209,3.6011765 9.4216122,3.2938661 8.9527339,3.0978934 8.4392652,3.0216506 8.21536,2.9884039 7.7878773,2.9880864 7.561626,3.0209989 6.0391321,3.2424744 4.9324028,4.574338 4.9923021,6.1129832 c 0.03288,0.8445883 0.4007109,1.6152578 1.0296981,2.1573943 0.3706246,0.3194486 0.7707981,0.5292118 1.2380683,0.6489714 0.2950357,0.075617 0.3985028,0.086042 0.795432,0.080144 0.3015776,-0.00448 0.3747209,-0.010696 0.5396652,-0.04586 z"
     id="path6" />
  <path
     style="fill:#800080;stroke-width:0.0106386"
     d="M 1.8632309,14.967541 C 1.5262735,14.931121 1.2118682,14.67464 1.0753932,14.324851 l -0.042448,-0.108795 -0.011591,-1.958375 c -0.012984,-2.193734 -0.012374,-6.2907047 0.00131,-8.8087216 l 0.00905,-1.6650149 0.041645,-0.105029 C 1.2054902,1.345685 1.4899796,1.0976623 1.8017671,1.0438786 1.9460129,1.018996 14.054321,1.0191352 14.200198,1.0440211 c 0.164609,0.028081 0.346457,0.1273921 0.480699,0.2625185 0.129579,0.1304333 0.241319,0.3143001 0.268259,0.441419 0.0239,0.1127705 0.03664,11.8656004 0.0133,12.2698804 -0.01588,0.275079 -0.01653,0.278496 -0.07444,0.391201 -0.115785,0.22534 -0.277578,0.382408 -0.505454,0.490694 -0.100527,0.04777 -0.331034,0.100583 -0.35116,0.08046 -0.0043,-0.0043 -0.01409,-0.284987 -0.02182,-0.623811 -0.0162,-0.710612 -0.02743,-0.80199 -0.140565,-1.14415 C 13.588979,12.36529 13.078843,11.685442 12.306149,11.129429 11.14207,10.291785 9.4530601,9.9069448 7.3736373,10.005557 c -0.6294321,0.02985 -1.3516099,0.143968 -1.9116534,0.302079 -1.2786233,0.360979 -2.2442456,1.016859 -2.8655826,1.94639 -0.2664978,0.398686 -0.4278807,0.763782 -0.5448434,1.232597 -0.047332,0.189717 -0.047513,0.19223 -0.060582,0.837297 -0.00721,0.355856 -0.01571,0.648755 -0.01889,0.650887 -0.00318,0.0021 -0.052164,-0.0011 -0.1088543,-0.0073 z M 8.5629336,8.959824 C 9.3613916,8.8003233 10.060327,8.3389645 10.497479,7.6828543 10.820401,7.1981888 10.98265,6.6988188 11.007543,6.1129832 11.065437,4.7505005 10.179901,3.5111036 8.8648758,3.1141047 8.5623429,3.0227717 8.4187065,3.0049091 7.9920714,3.0055631 7.6238668,3.0061276 7.5815014,3.0091868 7.3970845,3.0485282 6.7330732,3.190181 6.1634272,3.5237344 5.7241895,4.0280834 4.7807099,5.1114217 4.7408733,6.7181398 5.6292489,7.8572844 6.0941271,8.4533875 6.805365,8.8676423 7.5629453,8.9835501 7.7865367,9.017759 8.3384663,9.0046638 8.5629336,8.959824 Z"
     id="path7" />
  <path
     style="fill:#cccccc;stroke-width:0.0106386"
     d="M 1.8632309,14.967541 C 1.5265421,14.93115 1.2056189,14.668721 1.0720961,14.320606 l -0.040101,-0.10455 -0.00947,-1.657087 C 1.0107003,10.489937 1.0107773,5.5640506 1.0226677,3.4093162 L 1.031637,1.7839445 1.0737579,1.6777561 C 1.2016907,1.3552323 1.4891386,1.1015485 1.7918731,1.0439919 c 0.1340097,-0.025478 12.2590089,-0.025454 12.4083249,2.49e-5 0.05865,0.010008 0.159893,0.045653 0.234911,0.082705 0.237095,0.1171056 0.465691,0.3954642 0.514287,0.6262428 0.02864,0.1360061 0.02921,12.3348164 5.84e-4,12.4851214 -0.0392,0.20581 -0.243692,0.477154 -0.453979,0.602385 -0.114592,0.06824 -0.263291,0.121759 -0.376607,0.135541 l -0.08873,0.01079 -0.01029,-0.155444 c -0.0057,-0.08549 -0.01044,-0.291024 -0.01062,-0.456733 -7.74e-4,-0.712626 -0.05391,-1.00631 -0.273728,-1.512859 C 13.53356,12.3952 13.263322,12.001626 12.884816,11.622067 11.978238,10.712968 10.720181,10.199503 8.9782694,10.027644 8.6350258,9.993779 7.4252564,9.98834 7.1040704,10.019244 5.9671666,10.128542 5.1041305,10.355088 4.3329611,10.746659 3.2352252,11.304048 2.4422307,12.200054 2.1184984,13.248784 2.0109835,13.597079 2.00469,13.65084 1.9907908,14.339706 c -0.007,0.347083 -0.015376,0.632846 -0.018607,0.635029 -0.00323,0.0022 -0.052256,-0.001 -0.1089462,-0.0072 z M 8.3250743,8.9906967 C 8.6723335,8.958417 9.0416046,8.8456863 9.395441,8.6639366 9.9601246,8.373884 10.39731,7.9293239 10.687728,7.3498513 10.864313,6.9975098 10.957381,6.6800576 10.996211,6.2976262 11.123787,5.0411213 10.437596,3.824591 9.295818,3.2830419 8.8346821,3.0643236 8.4399846,2.9852817 7.8891078,3.001335 7.5496476,3.0112273 7.3530042,3.0443454 7.0573594,3.1414156 6.3018786,3.3894654 5.6658276,3.9363941 5.3143822,4.6401698 4.8421639,5.5857957 4.8865567,6.6821423 5.4332304,7.5753015 5.6561367,7.9394872 6.0157422,8.3053033 6.3783883,8.5367829 6.737672,8.7661162 7.2037522,8.9361971 7.6194252,8.9896593 c 0.149652,0.019248 0.5041416,0.019769 0.7056491,0.00104 z"
     id="path8" />
  <path
     style="fill:#cccccc;stroke-width:0.0106386"
     d="M 1.7898835,14.945629 C 1.503157,14.883265 1.2478173,14.669232 1.1061281,14.372483 L 1.0465808,14.24777 1.0340362,13.129832 c -0.0069,-0.614867 -0.00989,-3.4156596 -0.00665,-6.2239846 l 0.00589,-5.1060456 0.044174,-0.1074322 C 1.2001408,1.3939898 1.4412075,1.1589597 1.7119282,1.0737833 L 1.8235877,1.0386521 H 8 c 6.014294,0 6.178701,7.864e-4 6.263627,0.029957 0.281004,0.096521 0.473252,0.2607634 0.614577,0.5250477 l 0.05936,0.111001 0.0101,0.64222 c 0.01312,0.833978 0.01308,10.5976342 -5.2e-5,11.3547162 l -0.01005,0.579691 -0.06163,0.12462 c -0.08677,0.17545 -0.268898,0.363494 -0.436538,0.45071 -0.125472,0.06528 -0.273859,0.112662 -0.352811,0.112662 -0.0575,0 -0.05599,0.01346 -0.07546,-0.673935 -0.02079,-0.73403 -0.04813,-0.899147 -0.217777,-1.315227 -0.230017,-0.564148 -0.516101,-0.983053 -0.976337,-1.429622 -0.880061,-0.853928 -2.095149,-1.3462 -3.7545729,-1.521099 -0.3179692,-0.033514 -1.4090189,-0.048808 -1.7998018,-0.02523 -0.5232314,0.03157 -1.117564,0.124676 -1.6333003,0.255868 -0.8189247,0.208317 -1.4890594,0.52217 -2.0927158,0.980111 -0.20767,0.15754 -0.651167,0.601999 -0.803198,0.804939 -0.2780221,0.371121 -0.4779992,0.755633 -0.6147479,1.182023 -0.1089668,0.339765 -0.1220717,0.453435 -0.1368681,1.187167 -0.00554,0.274727 -0.01356,0.511992 -0.017821,0.527254 -0.00908,0.03254 -0.04002,0.03327 -0.1741018,0.0041 z M 8.5787909,8.9605458 C 9.0539108,8.8639313 9.5557169,8.6282237 9.9228963,8.3291948 10.070602,8.2089043 10.320396,7.9435725 10.430622,7.7898883 10.683079,7.4378967 10.873556,7.0098092 10.955587,6.6100554 11.017619,6.3077669 11.031426,5.8828047 10.98893,5.583827 10.882399,4.8343263 10.492539,4.1398651 9.9108028,3.6633511 9.5426134,3.3617586 9.0664956,3.135723 8.6014021,3.041717 8.4398325,3.0090601 8.3755847,3.005088 8.0079286,3.0050255 7.5302838,3.0049443 7.4085981,3.0214586 7.0692529,3.1324158 6.578279,3.2929516 6.1857502,3.5393633 5.826701,3.9124332 5.5950357,4.1531449 5.4601847,4.3423891 5.3150348,4.6304837 5.1853666,4.8878505 5.1011608,5.1286194 5.0411064,5.4137253 c -0.055682,0.2643466 -0.070207,0.7260963 -0.031225,0.9926176 0.090624,0.6196023 0.3350074,1.1476259 0.7407813,1.600562 0.4014843,0.4481476 0.8966063,0.7512563 1.4881879,0.9110536 0.2935896,0.079304 0.376676,0.088078 0.7849356,0.082892 0.3181831,-0.00404 0.4091711,-0.01065 0.5550047,-0.040305 z"
     id="path9" />
  <path
     style="fill:#ffffff;stroke-width:0.0106386"
     d="M 1.7879167,14.945228 C 1.5846813,14.901078 1.3626306,14.756003 1.2305678,14.581087 1.1927279,14.530968 1.132283,14.428333 1.0962457,14.353009 L 1.0307235,14.216056 V 8 1.7839445 L 1.0886045,1.6622453 C 1.1615382,1.5088966 1.2244767,1.4172714 1.3279727,1.3137754 1.4388904,1.2028577 1.5779552,1.115935 1.7119282,1.0737833 L 1.8235877,1.0386521 H 8 c 6.014294,0 6.178701,7.864e-4 6.263627,0.029957 0.280934,0.096497 0.479525,0.2659554 0.615314,0.5250477 l 0.05818,0.111001 0.01035,0.6342914 c 0.01336,0.8186684 0.01356,10.6169418 2.36e-4,11.3776018 l -0.01014,0.578791 -0.06327,0.11893 c -0.09132,0.171651 -0.276083,0.359804 -0.433244,0.441199 -0.136039,0.07046 -0.267866,0.113806 -0.346079,0.113806 -0.04636,0 -0.05275,-0.0055 -0.05981,-0.05154 -0.0043,-0.02834 -0.01546,-0.304856 -0.0247,-0.614469 -0.02163,-0.7252 -0.04812,-0.893857 -0.201627,-1.283726 C 13.590285,12.464463 13.283198,12.00562 12.841933,11.57481 11.943454,10.697619 10.760555,10.215371 9.0465868,10.027511 8.6789989,9.9872217 7.2838332,9.9866107 6.9454966,10.026591 5.5859192,10.187249 4.6365954,10.495842 3.8136829,11.044638 3.5265882,11.2361 3.3758958,11.36107 3.1076276,11.63017 2.6473516,12.091874 2.3381214,12.581462 2.1413255,13.160066 2.0168667,13.52599 2.0073732,13.596 1.988456,14.28741 c -0.00919,0.335778 -0.019848,0.626561 -0.023692,0.646185 -0.00816,0.04165 -0.031573,0.04319 -0.1768417,0.01163 z M 8.5768653,8.960594 C 9.6195498,8.7498006 10.446612,8.046658 10.828284,7.046508 11.017785,6.5499308 11.065555,5.9298001 10.955587,5.3939089 10.837937,4.8205767 10.561692,4.308342 10.140733,3.8829444 9.7810245,3.519442 9.4054963,3.2863807 8.9206243,3.1257167 8.6118348,3.0233984 8.4681649,3.0048539 7.9920714,3.005862 7.6104626,3.0066699 7.546034,3.0106261 7.3993322,3.0422598 6.1156605,3.3190614 5.1794459,4.3281383 5.0092862,5.6183152 c -0.030396,0.2304664 -0.022804,0.691125 0.014687,0.8911001 0.1083292,0.577832 0.3270456,1.0334113 0.7084353,1.4756484 0.417813,0.4844714 1.0272831,0.8387165 1.6729435,0.9723725 0.2296603,0.047541 0.2200906,0.046895 0.6263628,0.042272 0.309188,-0.00352 0.4020221,-0.010179 0.5451505,-0.039114 z"
     id="path10" />
  <path
     style="fill:#ffffff;stroke-width:0.0106386"
     d="M 1.7760159,15.968101 C 1.2343319,15.907463 0.70737419,15.594574 0.38420705,15.141696 0.29645345,15.01872 0.16592742,14.763246 0.11959959,14.623789 0.0338496,14.365661 0.03827465,14.482091 0.02153694,12.043608 0.00444451,9.5534463 0.01733003,2.185136 0.03939559,1.8315164 0.05710731,1.5476707 0.09409827,1.4088254 0.22105654,1.1496531 0.33797874,0.91096842 0.46380155,0.73487226 0.63069726,0.57633765 0.97143336,0.25267167 1.333724,0.0850732 1.8077304,0.03183293 1.9231404,0.01887011 3.6453382,0.0154211 8.1347869,0.01916187 l 6.1684841,0.0051398 0.15102,0.04236584 c 0.396518,0.1112357 0.723192,0.30359891 0.987382,0.58142434 0.147702,0.15532504 0.238678,0.29209454 0.352763,0.53033085 0.116842,0.2439932 0.148467,0.3678769 0.166722,0.6530937 0.02051,0.3204879 0.02051,12.0164796 0,12.3369676 -0.01893,0.295796 -0.05046,0.413495 -0.182672,0.681863 -0.27436,0.55692 -0.703341,0.907578 -1.324571,1.082732 l -0.150644,0.04247 -6.2081273,0.0025 c -3.4144698,0.0014 -6.2580773,-0.0031 -6.3191278,-0.0099 z m 0.2307569,-1.010717 c 0.024683,-1.302727 0.029362,-1.359172 0.1414018,-1.705937 0.543882,-1.683318 2.1234818,-2.816232 4.3691693,-3.133638 0.5287846,-0.07474 0.7441527,-0.08739 1.4905847,-0.08759 0.5733232,-1.49e-4 0.7681214,0.0054 0.9910803,0.02824 1.1020171,0.112888 1.8686061,0.320612 2.6481661,0.717575 0.486579,0.247773 0.872779,0.526632 1.23715,0.893293 0.443019,0.445806 0.755174,0.949726 0.948913,1.531857 0.123287,0.370444 0.129973,0.42183 0.145463,1.117939 0.0075,0.335778 0.01398,0.626561 0.01447,0.646184 8.28e-4,0.03343 0.0076,0.03565 0.10792,0.03527 0.298974,-0.0011 0.651499,-0.242758 0.809767,-0.554999 0.06783,-0.13382 0.06818,-0.135381 0.08266,-0.372243 0.01943,-0.317861 0.01942,-11.8514097 -10e-6,-12.1546086 -0.01452,-0.2266107 -0.01572,-0.2318768 -0.0825,-0.3647175 -0.09676,-0.1924604 -0.270486,-0.3652918 -0.46315,-0.4607605 l -0.140456,-0.069599 -0.25578,-0.013593 c -0.333964,-0.0177476 -11.7692696,-0.0177476 -12.1032344,0 L 1.6926077,1.0236494 1.5521521,1.0932484 C 1.3594883,1.1887174 1.1857606,1.3615485 1.0890022,1.5540089 1.0222172,1.6868496 1.0210262,1.6921157 1.0065012,1.9187264 0.9863997,2.2323461 0.9868882,13.760592 1.0070162,14.071357 c 0.012618,0.194816 0.021968,0.250495 0.053704,0.319816 0.1606897,0.350992 0.5121909,0.606363 0.8381946,0.60896 0.1062077,8.46e-4 0.107043,5.15e-4 0.107863,-0.04275 z"
     id="path11" />
  <path
     style="fill:#ffffff;stroke-width:0.0106386"
     d="M 1.6717024,15.943718 C 1.1562015,15.850197 0.64467007,15.518198 0.36999091,15.098869 0.27042759,14.946874 0.14838629,14.694859 0.1037389,14.549058 0.03436792,14.322521 0.0325317,14.150512 0.03230331,7.8572844 0.03212888,3.050991 0.0360507,1.8920883 0.05299017,1.7443013 0.10109346,1.3246278 0.33412404,0.86906101 0.65303578,0.5712326 0.92886996,0.3136339 1.1957098,0.17024727 1.5777998,0.07430975 L 1.7125867,0.04046661 8.0079133,0.03593419 14.30324,0.03140177 14.469757,0.07997151 c 0.218914,0.06385301 0.544593,0.22509511 0.714036,0.35351652 0.28943,0.21935856 0.478786,0.46550242 0.638969,0.83059617 0.07255,0.1653659 0.101523,0.2778429 0.12214,0.4742197 0.01106,0.10531 0.01645,2.1572756 0.01645,6.2616961 0,4.104421 -0.0054,6.156386 -0.01645,6.261696 -0.02303,0.219379 -0.05297,0.323829 -0.152489,0.532029 -0.121614,0.254422 -0.242203,0.428813 -0.417942,0.604411 -0.228879,0.228696 -0.471923,0.374882 -0.833341,0.501238 l -0.17443,0.06098 -6.2874136,0.0026 c -5.2738439,0.0022 -6.3067855,-9.34e-4 -6.407584,-0.01922 z M 2.012562,14.965312 c 0.00397,-0.01962 0.011236,-0.260456 0.016145,-0.535183 0.013385,-0.749092 0.032666,-0.901721 0.1601924,-1.268096 0.3020313,-0.867714 0.9065541,-1.607204 1.7510795,-2.142032 0.8692976,-0.550515 2.0152769,-0.886847 3.2973898,-0.967746 0.4552942,-0.02873 1.5842089,-0.01026 1.9281418,0.03155 1.0989345,0.133572 1.8953015,0.372154 2.6470295,0.793017 0.867622,0.485749 1.509327,1.159044 1.867707,1.959654 0.09586,0.214141 0.208385,0.54466 0.241851,0.710367 0.02705,0.133952 0.05509,0.707434 0.05571,1.139674 2.11e-4,0.145372 0.0047,0.2756 0.01001,0.289395 0.0075,0.01943 0.03363,0.02508 0.116052,0.02508 0.222783,0 0.406379,-0.08777 0.612935,-0.293021 0.190215,-0.189014 0.255756,-0.315126 0.276784,-0.532584 0.01924,-0.198969 0.01924,-12.151803 0,-12.3507722 C 14.981848,1.703164 14.96862,1.6539045 14.92333,1.5629686 14.819411,1.3543106 14.658482,1.1948783 14.430129,1.074353 L 14.303271,1.007397 11.151635,0.99463657 c -1.7333991,-0.007018 -4.5698709,-0.007018 -6.3032703,0 L 1.6967294,1.007397 1.5698712,1.074353 C 1.3415179,1.1948783 1.1805893,1.3543106 1.0766698,1.5629686 1.0313803,1.6539045 1.0181522,1.703164 1.0064079,1.8246138 0.98576201,2.0381149 0.98646137,13.927635 1.007133,14.152626 c 0.013588,0.147887 0.024343,0.191322 0.070678,0.285431 0.1610057,0.327011 0.4997163,0.561407 0.8128677,0.562525 0.1063542,3.79e-4 0.1151864,-0.0022 0.1218833,-0.03527 z"
     id="path12" />
  <path
     style="fill:#ffffff;stroke-width:0.0106386"
     d="M 1.6717024,15.943718 C 1.1562015,15.850197 0.64467007,15.518198 0.36999091,15.098869 0.27042759,14.946874 0.14838629,14.694859 0.1037389,14.549058 0.03437599,14.322547 0.03254082,14.150454 0.03237911,7.8572844 0.03221356,1.414581 0.02838981,1.6951213 0.12010257,1.4212119 0.21494354,1.1379598 0.39695215,0.83057762 0.58432587,0.63721621 0.8519395,0.36105075 1.1434929,0.19262934 1.5460852,0.08163749 l 0.1506442,-0.04153153 6.3032559,-0.0043519 6.3032557,-0.0043519 0.166516,0.04890229 c 0.09158,0.02689625 0.24574,0.0866919 0.342569,0.13287923 0.480735,0.2293112 0.796399,0.55591884 1.007337,1.04226252 0.0759,0.1749888 0.104492,0.2852316 0.125239,0.4828577 0.01106,0.10531 0.01645,2.1572756 0.01645,6.2616961 0,4.104421 -0.0054,6.156386 -0.01645,6.261696 -0.02303,0.219379 -0.05297,0.323829 -0.152489,0.532029 -0.121614,0.254422 -0.242203,0.428813 -0.417942,0.604411 -0.229429,0.229246 -0.474645,0.376834 -0.833341,0.501565 l -0.17443,0.06066 -6.2874136,0.0026 c -5.2738439,0.0022 -6.3067855,-9.34e-4 -6.407584,-0.01922 z m 0.3401067,-0.978406 c 0.00526,-0.01962 0.00979,-0.164123 0.010063,-0.32111 5.923e-4,-0.337004 0.025305,-0.882131 0.046889,-1.03432 0.044362,-0.312795 0.2447763,-0.818452 0.4762293,-1.201557 0.2194728,-0.363275 0.614276,-0.8071 0.9639766,-1.083672 0.7852724,-0.621057 1.8035236,-1.025389 3.0180113,-1.198406 0.5378456,-0.07662 0.6137416,-0.08068 1.4968076,-0.08011 0.7744351,5.02e-4 0.8634285,0.0034 1.1332141,0.03646 1.035356,0.126996 1.766022,0.333597 2.485438,0.702776 0.488943,0.250908 0.85716,0.516035 1.218272,0.877192 0.430471,0.430524 0.736698,0.907168 0.932485,1.451417 0.148204,0.411979 0.163027,0.52003 0.177291,1.292369 0.0053,0.28781 0.01293,0.539346 0.01692,0.558969 0.0067,0.03284 0.01594,0.03568 0.116282,0.03568 0.06471,0 0.151324,-0.01306 0.213073,-0.03214 0.222234,-0.06864 0.489454,-0.302236 0.60408,-0.528068 0.05359,-0.105579 0.06132,-0.136237 0.07319,-0.290318 0.01759,-0.228203 0.01745,-12.0969386 -1.43e-4,-12.3093772 -0.01191,-0.1438116 -0.02113,-0.1796 -0.07225,-0.2803095 C 14.817497,1.3556126 14.651217,1.1907746 14.43167,1.0750669 l -0.128399,-0.06767 -3.151636,-0.0127604 c -1.7333991,-0.007018 -4.5698709,-0.007018 -6.3032703,0 L 1.6967294,1.007397 1.5683304,1.0750669 C 1.3487829,1.1907746 1.1825034,1.3556126 1.078362,1.5607873 1.0272445,1.6614968 1.0180199,1.6972852 1.0061127,1.8410918 0.9867653,2.0747552 0.98759228,13.89715 1.0069728,14.136769 c 0.013943,0.172396 0.020961,0.201349 0.074638,0.30793 0.072073,0.143108 0.2615284,0.349264 0.3944795,0.429252 0.1366425,0.08221 0.2799644,0.126149 0.4130411,0.126631 0.1040674,3.76e-4 0.1138807,-0.0024 0.1226777,-0.03527 z"
     id="path13" />
  <path
     style="fill:#ffffff;stroke-width:0.0106386"
     d="M 1.6717024,15.943727 C 1.1494832,15.848946 0.64317103,15.51747 0.36219148,15.086409 0.2600938,14.929778 0.15257627,14.705953 0.10406737,14.549058 0.03436374,14.323613 0.03257009,14.156234 0.03235787,7.8572844 0.03214315,1.4842063 0.02935809,1.7052901 0.11322113,1.4382012 0.16553538,1.2715895 0.318691,0.97020086 0.42209332,0.83038432 0.6971418,0.45847455 1.0385126,0.22918057 1.5351155,0.08278283 l 0.1457567,-0.04296882 6.3111992,-0.0043004 6.3111996,-0.0043004 0.166501,0.04869463 c 0.09158,0.02678204 0.245725,0.0866202 0.342554,0.1329737 0.482633,0.23104466 0.796054,0.55542614 1.007337,1.04256466 0.0759,0.1749888 0.104492,0.2852316 0.125239,0.4828577 0.01106,0.10531 0.01645,2.1572756 0.01645,6.2616961 0,4.104421 -0.0054,6.156386 -0.01645,6.261696 -0.02303,0.219379 -0.05297,0.323829 -0.152489,0.532029 -0.267713,0.560068 -0.630847,0.883094 -1.243355,1.10603 l -0.166501,0.0606 -6.2953419,0.0026 c -5.2819922,0.0022 -6.3146856,-9.2e-4 -6.4155127,-0.01922 z m 0.3401067,-0.978415 c 0.00526,-0.01962 0.00982,-0.164123 0.010127,-0.32111 7.149e-4,-0.360987 0.026004,-0.908835 0.048867,-1.05864 0.00964,-0.06314 0.0516,-0.218268 0.093253,-0.344729 0.2035753,-0.618076 0.5073275,-1.11014 0.9748965,-1.579289 0.8306581,-0.833464 1.9947576,-1.349862 3.4973207,-1.551421 0.4158164,-0.05578 0.7343193,-0.07234 1.3875124,-0.07214 0.7921002,2.38e-4 1.2089483,0.03442 1.8428803,0.151109 1.003169,0.184659 1.891266,0.567504 2.604025,1.122556 0.198639,0.154688 0.539606,0.489457 0.688986,0.676462 0.268419,0.336026 0.49289,0.734949 0.633518,1.125867 0.148229,0.412049 0.163616,0.524266 0.177566,1.295003 0.0052,0.286361 0.01268,0.536712 0.01666,0.556335 0.0066,0.03246 0.01614,0.03564 0.106043,0.03529 0.05434,-2.13e-4 0.130917,-0.0078 0.170163,-0.01682 0.249978,-0.05757 0.542228,-0.305819 0.66853,-0.567871 0.04391,-0.0911 0.05023,-0.123408 0.06205,-0.317146 0.01724,-0.282539 0.01716,-11.9162035 -7.9e-5,-12.1989102 C 14.981508,1.6929355 14.978048,1.6769621 14.920198,1.5589262 14.835258,1.3855955 14.627587,1.1786106 14.438056,1.0783698 L 14.30327,1.0070828 11.151634,0.99452 C 9.4182347,0.98761 6.5817629,0.987802 4.8483635,0.99494544 L 1.6967294,1.0079293 1.6095144,1.0532362 C 1.3692894,1.1780293 1.177762,1.36168 1.0786488,1.5622695 1.0230928,1.674706 1.0186658,1.6947636 1.0059713,1.8915447 0.98900586,2.1545303 0.9865725,13.911496 1.0034856,13.901043 c 0.00682,-0.0042 0.00962,0.06174 0.00621,0.146579 -0.0113593,0.282813 0.05539,0.440567 0.282673,0.668066 0.1980533,0.198241 0.376215,0.281993 0.6046917,0.28426 0.096105,9.53e-4 0.1060127,-0.002 0.1147487,-0.03464 z"
     id="path14" />
  <path
     style="fill:#ffffff;stroke-width:0.0106386"
     d="M 1.6717024,15.943678 C 1.2643404,15.86991 0.85531022,15.647549 0.56522166,15.342161 0.37465329,15.141542 0.21072212,14.865211 0.11788197,14.588102 0.07584227,14.462622 0.06808532,14.409389 0.05153877,14.132816 0.02337729,13.6621 0.02403181,1.9979549 0.05223376,1.7474182 0.07780677,1.5202363 0.12912874,1.3572171 0.24983577,1.1197548 0.36308025,0.89697338 0.48516529,0.72964166 0.64576552,0.57708714 0.90631935,0.32958647 1.141313,0.19920826 1.5381566,0.08197443 l 0.1427156,-0.04216042 6.3111992,-0.0043004 6.3111996,-0.0043004 0.166501,0.04869463 c 0.198863,0.05815888 0.471325,0.18558874 0.643842,0.30112349 0.172125,0.11527208 0.409961,0.35648104 0.523121,0.53054003 0.104812,0.16121764 0.2291,0.42838264 0.266572,0.57301604 0.01383,0.053391 0.03255,0.1675636 0.0416,0.2537165 0.01106,0.10531 0.01645,2.1572756 0.01645,6.2616961 0,4.104421 -0.0054,6.156386 -0.01645,6.261696 -0.02303,0.219379 -0.05297,0.323829 -0.152489,0.532029 -0.272316,0.569698 -0.654185,0.904262 -1.26714,1.11017 l -0.190288,0.06392 -6.2715559,-0.0012 c -5.2425888,-9.94e-4 -6.2912723,-0.0048 -6.3917267,-0.02295 z m 0.3183868,-0.958197 c 0.019903,-0.01257 0.025465,-0.09343 0.03407,-0.495298 0.016802,-0.784605 0.03003,-0.91035 0.1280176,-1.216852 0.5017747,-1.569547 1.8905321,-2.661388 3.9018799,-3.067658 0.2105029,-0.04252 0.6328336,-0.106311 0.9072907,-0.137043 0.2358928,-0.02641 1.5008751,-0.03811 1.826931,-0.01689 0.3090013,0.02011 0.6507789,0.06204 0.9871777,0.121114 1.7392259,0.305418 3.0830119,1.154451 3.7640179,2.378188 0.163241,0.293336 0.323834,0.711816 0.382241,0.99606 0.02435,0.118512 0.05071,0.640433 0.06044,1.196818 0.0032,0.18044 0.0088,0.229866 0.02775,0.242735 0.03973,0.02699 0.254269,0.0059 0.349897,-0.03446 0.258067,-0.108815 0.49118,-0.338559 0.594083,-0.585496 0.02328,-0.05588 0.03148,-0.126401 0.03778,-0.325075 0.01016,-0.320546 0.01067,-11.7377295 5.44e-4,-12.091179 -0.0074,-0.2573019 -0.0084,-0.2633283 -0.05915,-0.3630361 C 14.813621,1.3529494 14.636892,1.1781809 14.398414,1.058693 14.334723,1.0267809 14.284513,1.016772 14.143144,1.0078076 13.912198,0.99316307 2.1281479,0.99322797 1.8710451,1.0078752 1.6741556,1.0190921 1.6727684,1.019447 1.5460184,1.0910335 1.3298895,1.2130998 1.1768755,1.3716335 1.0669242,1.5874099 1.0168562,1.6856659 1.0150352,1.6961548 1.0080242,1.9266601 0.997412,2.2755336 0.9976378,13.743004 1.0082627,14.041625 c 0.00985,0.27678 0.021661,0.323718 0.1210956,0.481166 0.1386484,0.21954 0.3889318,0.410024 0.6067233,0.461761 0.077629,0.01844 0.2254284,0.01898 0.2540076,9.29e-4 z"
     id="path15" />
  <path
     style="fill:#808080;stroke-width:0.0106386"
     d="M 1.6700551,15.944534 C 1.4968059,15.915379 1.3103345,15.850538 1.1179386,15.752546 0.64037607,15.509313 0.28953564,15.100454 0.11733646,14.586474 0.07490588,14.459827 0.06702727,14.406677 0.05102286,14.139116 0.02338108,13.677002 0.02451533,1.9934931 0.05222587,1.7474182 0.07781004,1.5202259 0.12913417,1.3572064 0.24983577,1.1197548 0.3634231,0.89629891 0.48520393,0.72960495 0.64747928,0.57545923 0.90112779,0.33451796 1.1473259,0.19587435 1.5222993,0.08281446 l 0.1427156,-0.0430308 6.3270565,-0.004242 6.3270566,-0.004242 0.177711,0.05595497 c 0.617803,0.19452392 1.061741,0.58135389 1.313357,1.14440717 0.08496,0.190117 0.11262,0.2935673 0.134364,0.5025203 0.02338,0.2247071 0.02338,12.3069289 0,12.5316359 -0.02298,0.220795 -0.0507,0.317204 -0.15181,0.527907 -0.273905,0.570798 -0.654681,0.904315 -1.267477,1.11017 l -0.190288,0.06392 -6.2715559,-0.0014 c -5.0494019,-0.0011 -6.2952949,-0.0054 -6.393374,-0.02189 z M 1.9891175,14.98607 c 0.018649,-0.0118 0.02505,-0.108025 0.035062,-0.527012 0.018963,-0.793654 0.035802,-0.926653 0.163926,-1.294743 0.6286098,-1.80595 2.4948782,-2.957476 5.0438273,-3.112147 0.4694018,-0.02848 1.6072146,-0.01006 1.9472073,0.03153 0.8451469,0.103378 1.4603959,0.256081 2.0636759,0.512199 0.653344,0.277374 1.161281,0.611375 1.610446,1.058974 0.480333,0.478658 0.786523,0.974299 0.989552,1.601824 0.103763,0.32071 0.11351,0.411492 0.133334,1.241815 0.01255,0.525418 0.0067,0.501815 0.124163,0.502243 0.30748,0.0011 0.669267,-0.255237 0.827668,-0.586476 l 0.05687,-0.11893 0.0076,-0.340932 c 0.0097,-0.437216 0.0097,-11.4740158 1.9e-5,-11.917973 L 14.985134,1.70221 14.915105,1.5609151 C 14.826107,1.3813458 14.65102,1.2005998 14.464136,1.095371 14.349633,1.0308979 14.327214,1.0242346 14.186633,1.0128902 14.003226,0.99808993 2.0319632,0.9977036 1.8154069,1.012491 1.6747565,1.0220952 1.6559139,1.02764 1.5379044,1.0941526 1.3488199,1.2007245 1.1742787,1.380566 1.0848947,1.5609189 l -0.070029,0.1412989 -0.00767,0.3421517 c -0.00998,0.4454714 -0.009667,11.5189715 3.367e-4,11.9338265 l 0.00765,0.317146 0.056662,0.11893 c 0.126804,0.266152 0.3847676,0.491718 0.643773,0.562921 0.089475,0.0246 0.2408855,0.02951 0.273497,0.0089 z"
     id="path16" />
  <path
     style="fill:#800080;stroke-width:0.0106386"
     d="m 14.065641,14.947373 c -0.01963,-0.01456 -0.02678,-0.09743 -0.03984,-0.461744 -0.0274,-0.764264 -0.04755,-0.965722 -0.121356,-1.213082 C 13.686344,12.541568 13.194208,11.828931 12.537998,11.293864 11.698324,10.609202 10.67837,10.226325 9.1892973,10.036805 8.9715792,10.009095 8.8091822,10.002085 8.222003,9.995035 7.4182277,9.985385 7.0458788,10.000925 6.6283459,10.061549 5.2984283,10.254634 4.353855,10.612087 3.538761,11.230734 c -0.1682008,0.127662 -0.5493768,0.500954 -0.7137738,0.69901 -0.2797679,0.337048 -0.5056775,0.727916 -0.6569523,1.136658 -0.1429327,0.386202 -0.1679108,0.544422 -0.1852507,1.173439 -0.00493,0.178791 -0.013295,0.412488 -0.018592,0.519326 l -0.00963,0.194252 -0.049629,-1.88e-4 C 1.7771759,14.952747 1.5766151,14.871327 1.4238014,14.757912 1.2984402,14.664872 1.1997072,14.539347 1.1097562,14.358649 L 1.0386521,14.215812 V 8 1.7841879 L 1.1097584,1.6409115 C 1.2509982,1.3563185 1.4666849,1.1634348 1.7458175,1.0720982 1.8207835,1.0475681 2.27437,1.0459814 8.025302,1.0501323 l 6.198682,0.00447 0.09632,0.041288 c 0.234795,0.1006463 0.410398,0.2565447 0.532513,0.4727585 l 0.0732,0.129608 0.01094,0.4947746 c 0.006,0.272126 0.0086,3.1029014 0.0058,6.290612 l -0.0052,5.7958376 -0.03761,0.07136 c -0.09506,0.180348 -0.265375,0.373764 -0.408933,0.464389 -0.152832,0.09648 -0.378804,0.166676 -0.425377,0.132142 z M 8.4120898,8.9905454 C 8.7694476,8.9529139 9.2369728,8.7874 9.5814107,8.5765809 9.9404147,8.3568461 10.30065,8.004879 10.53095,7.6488368 10.858787,7.1420009 11.014228,6.608758 11.013739,5.9926216 11.013419,5.5901726 10.961618,5.2929346 10.829711,4.9366576 10.597085,4.3083428 10.083794,3.7075961 9.4883168,3.3667124 9.2374294,3.2230906 8.8823681,3.088876 8.6080636,3.0339726 8.4027427,2.9928767 7.5914667,2.9921587 7.4027812,3.0329059 6.9002049,3.1414386 6.3815906,3.4004226 5.9972281,3.7348069 5.4631163,4.1994686 5.0919003,4.9023179 5.0024054,5.6183743 4.9730788,5.8530196 4.9907987,6.4004248 5.034329,6.604559 5.2635376,7.679426 6.0440561,8.5439729 7.0882061,8.8795504 7.4065892,8.981875 7.5596706,9.0048446 7.9286422,9.0056558 c 0.1831517,4.026e-4 0.4007031,-0.0064 0.4834476,-0.01511 z"
     id="path17" />
  <path
     style="fill:#800080;stroke-width:0.0106386"
     d="m 7.9207136,15.952466 -6.271556,-0.0082 -0.1189297,-0.03651 C 1.0353835,15.755842 0.6332548,15.468652 0.37640926,15.083714 0.19098808,14.805821 0.10046791,14.571833 0.06818864,14.286986 0.0375837,14.016915 0.03781514,1.8773935 0.06842892,1.6836886 0.1288468,1.3014018 0.33842385,0.90322464 0.63328944,0.61050545 0.877765,0.36780949 1.1028894,0.23233407 1.4588702,0.11368725 L 1.6491576,0.0502653 8,0.04682488 l 6.350842,-0.0034404 0.166502,0.05907959 c 0.240723,0.0854155 0.381304,0.15383683 0.561932,0.27349432 0.429535,0.28454611 0.764067,0.78167691 0.84377,1.25388251 0.0238,0.1410248 0.02601,0.6816613 0.02601,6.3701591 0,5.752628 -0.002,6.227859 -0.02669,6.374374 -0.02863,0.169857 -0.09273,0.337216 -0.212232,0.554167 -0.211777,0.384466 -0.512985,0.670474 -0.893263,0.848186 -0.197117,0.09212 -0.499326,0.192209 -0.5669,0.187759 -0.03174,-0.0021 -2.879903,-0.0075 -6.3292584,-0.01202 z M 2.0076058,14.945491 c 0.00633,-0.02617 0.019178,-0.290189 0.02855,-0.58672 0.018851,-0.596478 0.032176,-0.73987 0.088677,-0.954324 0.1678138,-0.636949 0.573695,-1.312234 1.0789447,-1.795095 0.8365028,-0.799435 2.0264009,-1.314495 3.4483539,-1.492655 0.4311096,-0.05401 0.6119065,-0.06285 1.2844401,-0.06278 0.9884446,10e-5 1.3678043,0.031 2.037661,0.16597 0.8193285,0.165087 1.5293145,0.447637 2.1486625,0.855093 0.522427,0.343693 1.000024,0.821316 1.302493,1.302561 0.199236,0.316997 0.416519,0.832623 0.479357,1.137546 0.03018,0.146431 0.05188,0.477952 0.06584,1.005857 0.0056,0.211293 0.01543,0.403959 0.02186,0.428146 0.01102,0.0414 0.0175,0.04425 0.110892,0.04873 0.209357,0.01003 0.405163,-0.08258 0.612861,-0.289844 0.110147,-0.109919 0.159732,-0.174275 0.214074,-0.277841 l 0.07072,-0.134787 V 8 1.7046581 L 14.933091,1.576259 C 14.816095,1.3550178 14.63548,1.1743421 14.423659,1.0666572 l -0.117471,-0.05972 H 8.0000003 1.693813 L 1.5758458,1.0668145 C 1.3663309,1.1731586 1.1830094,1.3567272 1.0667145,1.5766319 L 0.99900892,1.7046581 V 8 14.295342 l 0.0536443,0.103072 c 0.07432,0.142798 0.1342059,0.226804 0.2299078,0.322506 0.1850997,0.1851 0.3957854,0.282768 0.5955659,0.276087 0.116742,-0.0039 0.1180881,-0.0044 0.1294789,-0.05152 z"
     id="path18" />
  <path
     style="fill:#666666;stroke-width:0.0106386"
     d="M 1.8343812,14.93568 C 1.7241635,14.917346 1.5472354,14.833878 1.4231724,14.741687 1.3059318,14.654566 1.2040411,14.521793 1.1082666,14.331338 L 1.0386521,14.192903 V 7.9989613 1.8050193 L 1.1177401,1.6510507 C 1.2755608,1.3438061 1.5284085,1.1267567 1.7852488,1.0780479 1.8383698,1.0679739 4.05937,1.0624379 8.048124,1.0624379 h 6.180565 l 0.140363,0.070385 c 0.21793,0.1092804 0.355317,0.2390051 0.485893,0.4587944 l 0.06676,0.1123714 0.0042,6.2860868 0.0042,6.2860865 -0.05005,0.08888 c -0.119554,0.212318 -0.292232,0.388865 -0.473513,0.484126 -0.116288,0.06111 -0.276784,0.109187 -0.319364,0.09567 -0.03296,-0.01046 -0.03906,-0.07359 -0.06205,-0.641566 -0.02472,-0.610967 -0.04689,-0.808521 -0.116842,-1.041442 -0.126875,-0.422441 -0.348179,-0.843099 -0.657577,-1.249936 -0.152795,-0.200914 -0.547561,-0.599579 -0.758339,-0.765828 -0.818535,-0.645613 -1.810495,-1.016054 -3.2396088,-1.20981 -0.213924,-0.029 -0.3521015,-0.0344 -1.0658563,-0.04162 -0.8683098,-0.00879 -1.155448,0.00222 -1.5585243,0.059731 -0.9493254,0.135452 -1.7812835,0.387256 -2.4103072,0.729514 -0.2383514,0.129689 -0.5562319,0.337501 -0.7296121,0.476978 -0.158325,0.127366 -0.5603887,0.527711 -0.6888858,0.685941 -0.3305128,0.406991 -0.6221554,0.971606 -0.7387653,1.430237 -0.051838,0.203882 -0.067863,0.375221 -0.086629,0.926235 -0.017384,0.510451 -0.027089,0.651324 -0.044663,0.648295 -0.00591,-0.001 -0.04871,-0.0082 -0.095102,-0.01589 z M 8.6660059,8.9548334 C 8.9728331,8.8803124 9.325303,8.7404364 9.5584469,8.6006722 9.8382514,8.4329364 10.189673,8.1183083 10.397739,7.8492542 10.76804,7.3704095 10.977213,6.8112587 11.010475,6.2113197 11.050944,5.4813985 10.898623,4.8942462 10.523786,4.3352837 10.126151,3.7423242 9.5878267,3.3309696 8.9279091,3.1158121 8.6025126,3.0097208 8.5622831,3.0049554 7.9920714,3.0049554 c -0.5680253,0 -0.5997346,0.0041 -0.9434174,0.1219509 C 6.6673056,3.2576742 6.2583272,3.4933539 5.9705828,3.7481605 5.5209185,4.1463521 5.188177,4.7210126 5.0409475,5.3536859 c -0.039007,0.1676199 -0.044575,0.226623 -0.050406,0.534143 -0.00809,0.426553 0.011839,0.6437139 0.082637,0.9005835 0.2562065,0.9295576 0.9480976,1.6955901 1.8375334,2.0344397 0.4317038,0.1644668 0.5563446,0.1840763 1.1289307,0.177612 0.4289139,-0.00484 0.4710663,-0.00791 0.6263633,-0.045631 z"
     id="path19" />
</svg>
