<?xml version="1.0" encoding="UTF-8" standalone="no"?>
<svg
   width="16"
   height="16"
   fill="currentColor"
   class="bi bi-sliders"
   viewBox="0 0 16 16"
   version="1.1"
   id="svg1"
   sodipodi:docname="sliders.svg"
   inkscape:version="1.4 (e7c3feb1, 2024-10-09)"
   xmlns:inkscape="http://www.inkscape.org/namespaces/inkscape"
   xmlns:sodipodi="http://sodipodi.sourceforge.net/DTD/sodipodi-0.dtd"
   xmlns="http://www.w3.org/2000/svg"
   xmlns:svg="http://www.w3.org/2000/svg">
  <defs
     id="defs1" />
  <sodipodi:namedview
     id="namedview1"
     pagecolor="#ffffff"
     bordercolor="#000000"
     borderopacity="0.25"
     inkscape:showpageshadow="2"
     inkscape:pageopacity="0.0"
     inkscape:pagecheckerboard="0"
     inkscape:deskcolor="#d1d1d1"
     inkscape:zoom="63.0625"
     inkscape:cx="7.9920714"
     inkscape:cy="8"
     inkscape:window-width="1200"
     inkscape:window-height="1186"
     inkscape:window-x="0"
     inkscape:window-y="25"
     inkscape:window-maximized="0"
     inkscape:current-layer="svg1" />
  <path
     fill-rule="evenodd"
     d="M11.5 2a1.5 1.5 0 1 0 0 3 1.5 1.5 0 0 0 0-3M9.05 3a2.5 2.5 0 0 1 4.9 0H16v1h-2.05a2.5 2.5 0 0 1-4.9 0H0V3zM4.5 7a1.5 1.5 0 1 0 0 3 1.5 1.5 0 0 0 0-3M2.05 8a2.5 2.5 0 0 1 4.9 0H16v1H6.95a2.5 2.5 0 0 1-4.9 0H0V8zm9.45 4a1.5 1.5 0 1 0 0 3 1.5 1.5 0 0 0 0-3m-2.45 1a2.5 2.5 0 0 1 4.9 0H16v1h-2.05a2.5 2.5 0 0 1-4.9 0H0v-1z"
     id="path1" />
  <path
     style="fill:#800080;stroke-width:0.0106386"
     d="M 4.2338949,9.9667276 C 3.6462253,9.8581983 3.1713292,9.3981789 3.0407919,8.8110004 3.0068559,8.6583505 3.0076412,8.3384263 3.0423292,8.1846838 3.1070991,7.8976141 3.2414249,7.6578201 3.4566816,7.444995 3.6289789,7.2746442 3.7971062,7.1692791 4.0156594,7.0946848 4.2213944,7.0244655 4.3709906,7.0028776 4.5748266,7.0139926 5.2208167,7.0492179 5.7551964,7.4785179 5.9403495,8.111001 5.9725728,8.2210756 5.9775329,8.2724757 5.977841,8.4995045 5.9782536,8.8034632 5.9542898,8.913865 5.8349986,9.1575818 5.5462982,9.747408 4.8772247,10.085536 4.2338949,9.9667276 Z"
     id="path2" />
  <path
     style="fill:#800080;stroke-width:0.0106386"
     d="m 11.290387,4.9785581 c -0.2109,-0.032856 -0.440813,-0.1222796 -0.612682,-0.2383009 -0.344284,-0.2324113 -0.584132,-0.6037767 -0.64878,-1.0045304 -0.02712,-0.1681321 -0.0114,-0.4759857 0.032,-0.6266323 0.147671,-0.5125766 0.535595,-0.9005006 1.048171,-1.0481715 0.150647,-0.043401 0.458501,-0.059121 0.626633,-0.031998 0.596134,0.096167 1.073053,0.5465203 1.222735,1.1546261 0.04008,0.162815 0.0361,0.4805545 -0.0083,0.6598899 -0.13408,0.5421204 -0.564535,0.9746691 -1.09858,1.1039239 -0.154804,0.037467 -0.424689,0.052467 -0.561244,0.031193 z"
     id="path3" />
  <path
     style="fill:#800080;stroke-width:0.0106386"
     d="m 11.204963,14.961568 c -0.307527,-0.06954 -0.541768,-0.196966 -0.756162,-0.41136 -0.185827,-0.185827 -0.314091,-0.404174 -0.387878,-0.660294 -0.0434,-0.150646 -0.05912,-0.4585 -0.032,-0.626632 0.05163,-0.320054 0.207165,-0.611695 0.448462,-0.840904 0.588683,-0.559191 1.500981,-0.548176 2.0742,0.02504 0.321292,0.321292 0.48641,0.794311 0.428687,1.228073 -0.08094,0.608243 -0.491585,1.082917 -1.095239,1.266022 -0.138127,0.0419 -0.532089,0.05351 -0.680072,0.02005 z"
     id="path4" />
  <path
     style="fill:#008080;stroke-width:0.0106386"
     d="M 11.267161,15.982756 C 10.685853,15.926794 10.167493,15.679395 9.7434031,15.25551 9.4055076,14.917777 9.1739032,14.507835 9.0777541,14.077304 l -0.020363,-0.09118 H 4.53266 0.00792864 V 13.494549 13.002973 H 4.5338694 9.05981 l 0.017675,-0.08241 C 9.1086,12.77548 9.1884787,12.557347 9.2705543,12.39333 c 0.3501098,-0.699646 0.9741217,-1.176129 1.7581867,-1.342515 0.243275,-0.05162 0.679353,-0.05238 0.931263,-0.0016 0.953728,0.192184 1.700192,0.886949 1.945835,1.81107 l 0.03583,0.134787 1.025202,0.0041 1.025201,0.0041 v 0.49146 0.49146 h -1.022183 -1.022184 l -0.0167,0.06739 c -0.115765,0.467324 -0.346193,0.880057 -0.674787,1.208651 -0.415194,0.415194 -0.938287,0.659613 -1.543333,0.721134 -0.182005,0.01851 -0.248673,0.01842 -0.445728,-5.47e-4 z m 0.654291,-1.035302 c 0.245692,-0.07379 0.435481,-0.183962 0.621788,-0.360935 0.420568,-0.399499 0.571044,-1.017312 0.382439,-1.570194 -0.1729,-0.506841 -0.582462,-0.87326 -1.107549,-0.990881 -0.176386,-0.03951 -0.491174,-0.03575 -0.669507,0.008 -0.152053,0.03731 -0.388219,0.141555 -0.509132,0.224746 -0.2763,0.190099 -0.497354,0.504504 -0.597283,0.849515 -0.03125,0.107904 -0.03626,0.161328 -0.03626,0.386839 0,0.224171 0.0053,0.28095 0.03673,0.396432 0.126317,0.463619 0.479534,0.8536 0.924991,1.02127 0.192858,0.07259 0.302026,0.08844 0.568512,0.08254 0.209867,-0.0046 0.266174,-0.01156 0.385278,-0.04734 z"
     id="path5" />
  <path
     style="fill:#008080;stroke-width:0.0106386"
     d="M 4.0773404,10.95619 C 3.5932503,10.870983 3.139563,10.640851 2.78787,10.30211 2.4458639,9.9726991 2.2176493,9.5946572 2.1017327,9.1655104 2.0817088,9.0913776 2.062893,9.0218038 2.0599196,9.0109019 2.0556659,8.9953053 1.8364006,8.9910803 1.0312212,8.9910803 H 0.00792864 V 8.4995045 8.0079286 H 1.0312212 c 0.8051794,0 1.0244447,-0.00422 1.0286984,-0.019822 0.00297,-0.010902 0.021789,-0.080476 0.041813,-0.1546085 0.208801,-0.773024 0.8165566,-1.4205298 1.5840812,-1.6876876 0.3021945,-0.105187 0.4419428,-0.126797 0.8176549,-0.126438 0.2836085,2.71e-4 0.3561489,0.00546 0.4890455,0.035007 0.6805852,0.1512972 1.2320613,0.5301952 1.6034526,1.1016708 0.1456827,0.2241682 0.2934049,0.574604 0.3340327,0.792413 l 0.011092,0.059465 h 4.5254895 4.52549 V 8.4995042 8.99108 H 11.466581 6.9410915 L 6.9299995,9.050545 C 6.8854592,9.2893303 6.7355473,9.6323211 6.5614766,9.8937067 6.2449708,10.368974 5.7559361,10.726034 5.1920912,10.89354 4.8599911,10.992199 4.4218263,11.016825 4.0773404,10.95619 Z M 4.8840436,9.9585075 C 5.0291072,9.9193884 5.2346477,9.827144 5.3466529,9.7508935 5.4565263,9.6760942 5.6454183,9.4904011 5.724359,9.3795837 5.8173943,9.2489801 5.8984818,9.082172 5.9495347,8.9163658 c 0.039698,-0.1289275 0.04291,-0.1601306 0.04291,-0.4168613 0,-0.2567307 -0.00321,-0.2879339 -0.04291,-0.4168614 C 5.755457,7.4523307 5.224427,7.0311182 4.5810878,6.9971924 3.852829,6.9587884 3.2094678,7.4359289 3.0338702,8.1446662 c -0.027256,0.1100104 -0.034876,0.187536 -0.034876,0.3548383 0,0.2667967 0.036968,0.4311446 0.1485209,0.6602649 0.2067761,0.4247035 0.5770163,0.7138338 1.0452304,0.8162479 0.1840575,0.04026 0.5074499,0.032069 0.6912981,-0.01751 z"
     id="path6" />
  <path
     style="fill:#008080;stroke-width:0.0106386"
     d="M 11.203171,5.9768022 C 10.253246,5.8548752 9.4419709,5.1960273 9.1430227,4.3037266 9.1166979,4.2251525 9.0872059,4.123778 9.0774847,4.0784501 L 9.05981,3.9960357 H 4.5338694 0.00792864 V 3.5044599 3.012884 H 4.53266 9.0573913 L 9.077743,2.9217047 C 9.1090119,2.7816143 9.2004117,2.5300736 9.2717209,2.3878598 9.7237047,1.4864558 10.702112,0.93000765 11.68597,1.0148078 c 1.102404,0.095018 1.976526,0.8467422 2.245039,1.9306828 l 0.0167,0.067393 h 1.022184 1.022183 v 0.4915759 0.4915758 h -1.023292 c -0.804777,0 -1.024608,0.00423 -1.029453,0.019822 -0.0034,0.010902 -0.02495,0.087611 -0.04791,0.1704658 -0.07497,0.2704902 -0.220224,0.5670273 -0.392704,0.8016977 -0.119418,0.1624755 -0.411718,0.4449237 -0.577079,0.5576288 -0.512112,0.3490407 -1.136903,0.5057976 -1.718459,0.4311526 z M 11.693423,4.9942714 C 12.264867,4.9226184 12.755251,4.5167375 12.931415,3.9696109 13.163918,3.2475105 12.838133,2.4756552 12.162537,2.1479686 11.919162,2.0299237 11.808061,2.0059465 11.50446,2.0059465 c -0.224171,0 -0.28095,0.00526 -0.396432,0.036724 -0.569411,0.155142 -1.001286,0.6339795 -1.094835,1.2138887 -0.02752,0.1705974 -0.01168,0.4923141 0.03172,0.6443327 0.20793,0.7282748 0.899926,1.1872437 1.648509,1.0933794 z"
     id="path7" />
</svg>
